<?xml version="1.0" standalone="no"?>
<!DOCTYPE svg PUBLIC "-//W3C//DTD SVG 1.1//EN" "http://www.w3.org/Graphics/SVG/1.1/DTD/svg11.dtd" >
<svg xmlns="http://www.w3.org/2000/svg">
<metadata>
This is a custom SVG webfont generated by Font Squirrel.
Copyright   : C2001 Nate Piekos  wwwpiekosartscomblambotfonts
</metadata>
<defs>
<font id="ACMESecretAgentRegular" horiz-adv-x="768" >
<font-face units-per-em="2048" ascent="1638" descent="-410" />
<missing-glyph horiz-adv-x="500" />
<glyph unicode=" " />
<glyph unicode="!" horiz-adv-x="782" d="M106 128q0 68 59 118t129 50q126 0 126 -98q0 -68 -58 -122t-126 -54q-52 0 -91 28t-39 78zM234 588q0 4 12 50q8 32 46 290q38 248 108 850q18 174 126 174q48 0 81 -43t33 -93q0 -26 -4 -78t-4 -76q2 -70 -2 -210q-16 -308 -84 -622q-14 -72 -54 -214 q-44 -106 -152 -106q-40 0 -73 20t-33 58z" />
<glyph unicode="&#x22;" horiz-adv-x="998" d="M164 1380q0 202 76 358q36 24 68 24q138 0 138 -370q0 -192 -60 -372q-50 -56 -92 -56q-70 0 -106 172q-24 120 -24 244zM594 1376q0 204 78 362q36 24 68 24q80 0 114 -154q22 -94 22 -218q0 -190 -58 -370q-52 -56 -92 -56q-70 0 -108 172q-24 118 -24 240z" />
<glyph unicode="#" horiz-adv-x="1368" d="M110 580q0 78 58 78q98 0 182 6q-2 2 -20 208q-100 0 -146 24q-64 34 -64 126q0 62 60 72q64 2 126 4q-22 128 -22 192q0 112 96 112q62 0 88 -38q16 -26 26 -96q12 -52 38 -156q68 4 206 18q-18 88 -18 136q0 128 96 128q60 0 88 -40q18 -28 28 -96q8 -34 26 -104 q30 0 92 10t94 10q116 0 116 -96q0 -52 -41 -82t-95 -30q-54 -20 -124 -32q4 -70 16 -208q18 0 56 6t58 6q118 0 118 -96q0 -62 -40 -86q-24 -16 -94 -26q-32 -8 -92 -24v-76q2 -176 -150 -176q-72 0 -72 54q0 26 -3 77t-3 77q-100 -16 -208 -22q-2 -20 -4 -60 q-10 -52 -50 -84t-92 -32q-72 0 -72 52q0 20 -2 60t-2 60q-122 0 -168 16q-86 30 -86 128zM570 874q12 -118 16 -194q64 4 192 18q-6 64 -16 194q-96 -12 -192 -18z" />
<glyph unicode="$" horiz-adv-x="836" d="M108 1060q0 284 228 376v38q-2 26 -2 38q0 168 94 168q92 0 110 -74q8 -74 16 -146q28 -4 92 -16q94 -62 94 -116t-90 -102q-48 8 -90 8q-194 0 -194 -160q0 -82 51 -165t123 -133q54 -34 106 -68q62 -44 81 -94t19 -160q0 -100 -52 -184t-140 -128q-14 -64 -30 -128 q-24 -78 -88 -78q-128 0 -112 142q-102 -10 -82 -10q-24 0 -58 15t-34 35q0 50 186 114q6 -2 14 -2q50 0 119 77t69 129q0 84 -112 166q-178 130 -206 160q-112 122 -112 298z" />
<glyph unicode="%" horiz-adv-x="1628" d="M96 -26q0 34 72 114q42 48 302 368q286 354 774 982q148 192 228 192q66 0 66 -78q0 -48 -42 -110q-34 -48 -70 -96q-28 -50 -86 -150q-328 -548 -972 -1192q-102 -102 -182 -102q-30 0 -60 21t-30 51zM368 1176q0 94 82 164q76 68 174 68q72 0 113 -45t41 -117 q0 -96 -78 -166t-176 -70q-72 0 -114 46t-42 120zM852 282q0 98 77 166t175 68q74 0 116 -43t42 -115q0 -98 -78 -168t-176 -70q-74 0 -115 45t-41 117z" />
<glyph unicode="&#x26;" horiz-adv-x="1138" d="M100 780q0 42 24 52q12 8 58 8q16 0 292 14q6 94 22 280q12 120 88 120q38 0 62 -29t24 -67v-282q36 2 134 18q82 12 132 12q106 0 106 -78q0 -52 -32 -72q-20 -12 -80 -22q-28 -8 -84 -22q-96 -24 -198 -34q-10 -74 -20 -146q-16 -88 -40 -142q-30 -72 -114 -72 q-74 0 -74 48q0 -8 8 32q12 86 38 258q-22 0 -66 -2h-66q-96 0 -142 18q-72 28 -72 108z" />
<glyph unicode="'" horiz-adv-x="618" d="M134 1120q0 364 180 618q36 22 68 22q90 0 90 -156q0 -106 -52 -304q-58 -216 -116 -280q-50 -56 -104 -56q-66 0 -66 156z" />
<glyph unicode="(" horiz-adv-x="714" d="M60 736q0 178 101 443t219 403q30 36 94 61t114 25q68 0 68 -46q0 -26 -30 -49t-56 -41q-18 -16 -74 -88q-242 -318 -242 -656q0 -192 100 -404q62 -132 186 -308q100 -142 100 -164q0 -14 -18 -14q-72 0 -200 128q-362 360 -362 710z" />
<glyph unicode=")" horiz-adv-x="832" d="M118 1622q0 46 68 46q50 0 114 -25t94 -61q118 -140 219 -404t101 -442q0 -350 -362 -710q-130 -128 -200 -128q-18 0 -18 14q0 20 100 160q122 174 186 306q100 214 100 408q0 338 -242 658q-22 32 -72 88q-28 18 -54 38q-34 26 -34 52z" />
<glyph unicode="*" horiz-adv-x="1048" d="M144 1378q0 82 106 82q30 0 116 6q-98 108 -98 142q0 24 26 44t50 20q32 0 74 -48q50 -46 144 -140l136 84q106 64 130 64t44 -25t20 -51q0 -36 -62 -74q-20 -16 -60 -50q94 -26 104 -30q54 -26 54 -82q0 -66 -40 -66q-10 0 -24 6q-28 0 -130 16q28 -42 56 -82 q34 -54 34 -90q0 -30 -27 -59t-57 -29q-14 0 -21 11t-13 23l-178 222q-192 -108 -256 -108q-36 0 -64 27t-28 63q0 26 80 58q-116 0 -116 66z" />
<glyph unicode="+" horiz-adv-x="1138" d="M100 780q0 42 24 52q12 8 58 8q16 0 292 14q6 94 22 280q12 120 88 120q38 0 62 -29t24 -67v-282q36 2 134 18q82 12 132 12q106 0 106 -78q0 -52 -32 -72q-20 -12 -80 -22q-28 -8 -84 -22q-96 -24 -198 -34q-10 -74 -20 -146q-16 -88 -40 -142q-30 -72 -114 -72 q-74 0 -74 48q0 -8 8 32q12 86 38 258q-22 0 -66 -2h-66q-96 0 -142 18q-72 28 -72 108z" />
<glyph unicode="," horiz-adv-x="674" d="M154 -238q0 354 180 610q34 20 68 20q88 0 88 -146q0 -250 -132 -524q-10 -26 -34 -66q-14 -18 -49 -38t-55 -20q-66 0 -66 164z" />
<glyph unicode="-" horiz-adv-x="1386" d="M136 808q0 70 56 70q192 0 450 26q224 24 448 50q22 2 40 2q114 0 114 -92q0 -62 -36 -84q-22 -14 -92 -26q-92 -22 -280 -60q-208 -32 -476 -32q-224 0 -224 146z" />
<glyph unicode="." horiz-adv-x="630" d="M138 74q0 74 60 177t126 131q22 10 68 10q88 0 88 -76q0 -62 -57 -161t-107 -129t-106 -30q-72 0 -72 78z" />
<glyph unicode="/" horiz-adv-x="1538" d="M44 14q0 32 68 112q316 366 1086 1362q150 194 228 194q30 0 50 -24t20 -54q0 -48 -42 -110q-36 -50 -72 -98q-66 -112 -204 -332q-214 -312 -596 -734q-86 -100 -266 -288q-104 -100 -188 -100q-30 0 -57 21t-27 51z" />
<glyph unicode="0" horiz-adv-x="1786" d="M102 464q0 288 196 576q186 272 454 420q254 138 468 138q206 0 330 -139t124 -347q0 -226 -122 -512q-112 -258 -384 -452q-308 -220 -586 -220q-238 0 -364 152q-116 140 -116 384zM368 526q0 -154 62 -248q72 -112 218 -112q172 0 366 152q130 102 218 234 q64 100 144 288q40 96 40 208q0 238 -248 238q-236 0 -504 -225t-292 -455q-4 -36 -4 -80z" />
<glyph unicode="1" horiz-adv-x="648" d="M116 132q0 122 70 518q6 24 72 286q46 178 42 284l-2 20q-58 78 -110 158q22 96 76 176q68 100 150 100q64 0 100 -78q28 -60 28 -132q0 -124 -36 -308q-52 -282 -56 -304q0 -4 -98 -776q-62 -118 -126 -118q-50 0 -84 64q-26 56 -26 110z" />
<glyph unicode="2" horiz-adv-x="1538" d="M66 918q0 168 262 428q134 132 284 218q184 108 334 108q172 0 274 -148q14 -20 34 -60q2 -8 2 -38q0 -108 -56 -200q-162 -264 -256 -406q-96 -134 -280 -406q-2 -4 -56 -110l52 -20q68 18 592 182q36 10 74 10q58 0 100 -28t42 -84t-45 -103t-101 -63 q-152 -38 -458 -118l-256 -84q-184 -62 -240 -62q-166 0 -166 164q0 138 48 206l504 706q82 114 86 186l-34 56q-42 8 -80 8q-114 0 -246 -102q-26 -20 -206 -190q-110 -102 -168 -102q-40 0 -40 52z" />
<glyph unicode="3" horiz-adv-x="1774" d="M104 118q0 52 42 84q36 28 90 28q26 0 54 -6q240 -160 426 -160q122 0 284 82q142 72 250 168q56 50 104 136q52 94 52 162q0 74 -66 135t-142 61q-88 0 -262 -44t-262 -44q-54 0 -90 14l-20 66q36 92 132 180q152 140 162 152q44 52 98 122l2 28l-48 12 q-50 -18 -283 -64t-281 -46q-76 0 -136 36q-68 44 -68 116t96 146q100 24 258 36q234 18 263 22t231 38q144 26 232 26q194 0 194 -102q0 -88 -158 -238q-178 -170 -202 -230l44 -20q230 0 382 -76q200 -98 200 -302q0 -182 -150 -354q-124 -146 -308 -242 q-282 -148 -578 -148q-252 0 -356 44q-186 78 -186 182z" />
<glyph unicode="4" horiz-adv-x="1368" d="M96 936q0 182 114 540q18 60 80 68q48 -18 48 -100q0 -34 -5 -103t-5 -105q0 -66 14 -134q78 -66 194 -66q174 0 250 104q14 20 100 234q64 158 184 238l82 6l72 -32q6 -30 6 -60q0 -74 -40 -174q-36 -84 -70 -168q8 -46 18 -58q14 -18 56 -18q50 0 72 -78l-38 -76 q-58 -24 -120 -50t-104 -70q-52 -144 -136 -414q-34 -136 -66 -274q-50 -182 -122 -236q-10 -8 -20 -8q-26 0 -52 50t-26 80q0 134 42 354q4 22 52 204q32 124 32 204q0 22 -4 34l-48 28q-260 -48 -362 -48q-152 0 -198 128z" />
<glyph unicode="5" horiz-adv-x="1736" d="M92 216q0 82 92 82q28 0 158 -46q224 -80 382 -80q102 0 243 40t221 94q70 48 122 122q60 86 60 160q0 144 -220 244q-24 12 -68 28q-24 6 -72 6q-146 0 -310 -78q-180 -82 -260 -92q-62 64 -76 162q-10 92 -18 182q-6 34 -18 104q-4 18 -32 112q-22 68 -22 112 q0 108 160 128l882 114q74 4 106 -21t56 -97q-52 -206 -566 -224q-64 0 -190 -12q-88 -20 -118 -58q-26 -30 -50 -122l8 -66l50 -28q124 26 246 52q148 30 250 30q216 0 362 -84q182 -102 182 -302q0 -182 -158 -378q-142 -178 -320 -270q-208 -106 -466 -106 q-256 0 -540 196q-76 54 -76 96z" />
<glyph unicode="6" horiz-adv-x="1774" d="M74 600q0 334 227 639t547 397q60 16 72 16q70 0 144 -28q96 -36 96 -94q0 -50 -58 -126q-380 -108 -516 -200q-236 -160 -248 -468l64 8l194 132q118 82 298 142q188 62 324 62q342 0 486 -314q6 -120 6 -132t-24 -84q-86 -270 -284 -408q-282 -196 -622 -196 q-260 0 -462 140q-20 12 -62 56q-182 184 -182 458zM426 324q154 -124 432 -124q210 0 360 84q184 100 184 294v34q-108 114 -300 114q-194 0 -396 -112q-216 -120 -280 -290z" />
<glyph unicode="7" horiz-adv-x="1604" d="M98 1200q0 66 138 204q166 68 442 126q284 60 454 60q140 0 214 -26q116 -40 138 -150q-12 -56 -110 -196q-70 -100 -140 -198q-202 -316 -340 -624q-54 -144 -166 -414q-12 -24 -54 -54t-68 -30q-54 0 -54 102q0 134 108 440q80 230 172 432q48 84 124 258q6 34 18 98 l-70 16q-108 -14 -324 -52q-86 -22 -174 -44q-102 -24 -176 -24q-132 0 -132 76z" />
<glyph unicode="8" horiz-adv-x="1940" d="M104 246q0 82 66 220q60 132 120 198q78 62 216 202l-32 56q-180 116 -180 246q0 52 28 106q94 184 324 284q198 86 430 86q386 0 528 -310q-12 -82 -50 -152q-18 -36 -88 -134l2 -44q54 -14 152 -50q80 -42 138 -120q64 -84 64 -166q0 -30 -10 -64q-60 -260 -312 -446 q-222 -164 -510 -218q-112 -20 -304 -20t-280 24q-116 32 -200 106q-102 88 -102 196zM418 344l38 -80q168 -118 340 -118q166 0 370 120q178 106 306 252l34 108l-72 116q-144 80 -322 80q-134 0 -295 -65t-263 -159q-108 -98 -122 -164zM560 1160q100 -164 290 -164 q116 0 250 48t228 120l32 92q-68 120 -286 120q-138 0 -284 -54q-172 -62 -230 -162z" />
<glyph unicode="9" horiz-adv-x="1846" d="M102 1084q10 44 36 128q6 16 50 76q246 340 706 340q328 0 572 -174q272 -194 272 -510q0 -246 -170 -476q-158 -212 -409 -345t-493 -133q-58 0 -102 11t-108 41q-84 40 -84 68q0 40 100 108q102 -2 114 -2q282 0 490 106q242 122 332 362l-66 12q-206 -58 -296 -76 q-146 -30 -300 -30q-268 0 -432 112q-184 128 -212 382zM382 1028q88 -194 390 -194q176 0 370 68q216 78 312 200q-64 106 -258 164q-154 46 -310 46q-178 0 -308 -58q-162 -74 -196 -226z" />
<glyph unicode=":" horiz-adv-x="588" d="M122 74q0 74 61 177t125 131q22 10 68 10q88 0 88 -76q0 -62 -57 -161t-106 -129t-107 -30q-72 0 -72 78zM126 868q0 176 182 306q38 10 68 10q88 0 88 -80q0 -66 -55 -161t-111 -129q-46 -28 -104 -28q-68 0 -68 82z" />
<glyph unicode=";" horiz-adv-x="600" d="M94 -238q0 354 180 610q34 20 68 20q88 0 88 -146q0 -250 -132 -524q-10 -26 -34 -66q-14 -18 -49 -38t-55 -20q-66 0 -66 164zM132 868q0 176 182 306q40 10 70 10q86 0 86 -80q0 -66 -55 -161t-111 -129q-46 -28 -104 -28q-68 0 -68 82z" />
<glyph unicode="&#x3c;" horiz-adv-x="1456" d="M48 660q0 24 8 50q-2 12 -2 22q0 36 60 74q68 42 156 118l148 128q112 94 660 582q26 24 50 40q66 46 114 46q50 0 87 -48t37 -98q0 -46 -30 -82q0 -2 -64 -62q-20 -26 -62 -74q-314 -368 -794 -698q152 -108 878 -584q130 -84 130 -158q0 -50 -47 -94t-99 -44 q-36 0 -68 19t-62 39q-30 14 -88 40q-388 182 -760 476q-132 106 -160 132q-92 94 -92 176z" />
<glyph unicode="=" horiz-adv-x="1322" d="M114 572q0 66 50 70q104 6 310 18q256 18 562 56q26 4 46 4q104 0 104 -92q0 -58 -36 -82q-22 -14 -90 -24q-68 -18 -208 -48q-220 -40 -526 -40q-212 0 -212 138zM122 984q0 70 52 70q154 0 458 38t454 38q108 0 108 -90q0 -58 -36 -82q-22 -12 -90 -24 q-70 -18 -210 -48q-220 -42 -520 -42q-216 0 -216 140z" />
<glyph unicode="&#x3e;" horiz-adv-x="1518" d="M70 -86q0 78 128 160q296 190 880 584q-322 202 -642 530q-88 90 -154 168q-20 26 -62 74q-64 60 -64 62q-30 36 -30 82q0 50 37 98t87 48q68 0 164 -86q424 -382 682 -600q90 -80 282 -228l30 -18q34 -30 34 -58q0 -10 -2 -20q6 -22 6 -46q0 -86 -92 -178 q-26 -26 -162 -134q-376 -298 -760 -476q-30 -12 -88 -40q-104 -58 -140 -58q-46 0 -90 45t-44 91z" />
<glyph unicode="?" horiz-adv-x="1250" d="M98 1262q0 42 40 106q90 144 258 230q162 82 338 82q410 0 410 -192q0 -128 -84 -244q-12 -18 -224 -238q-180 -186 -180 -228q0 -52 114 -52q36 0 107 3t107 3q134 0 134 -114q0 -86 -110 -86q-2 0 -714 4q-98 44 -98 112q0 76 234 282l308 264q62 64 62 166q0 32 -6 64 q-46 52 -120 52q-102 0 -246 -96q-118 -82 -204 -180h-20q-106 -4 -106 62zM408 74q0 68 66 116q60 42 130 42q132 0 132 -92q0 -66 -63 -114t-131 -48q-134 0 -134 96z" />
<glyph unicode="@" horiz-adv-x="2472" d="M108 234q0 42 16 142q64 414 312 800q170 266 506 440q330 172 652 172q242 0 390 -94q156 -98 242 -316q130 -326 130 -570q0 -256 -144 -484q-196 -314 -542 -472q-314 -142 -714 -142q-332 0 -550 98q-298 134 -298 426zM370 298q0 -192 276 -290q198 -72 438 -72 q338 0 588 146q-84 110 -90 250q-208 -236 -426 -236q-164 0 -264 132q-88 120 -88 292q0 260 192 516q208 278 458 278q170 0 264 -132q82 -118 82 -294q0 -136 -50 -270q14 -206 128 -362q178 190 178 536q0 238 -80 414q-102 224 -308 260q-118 20 -236 20 q-290 0 -516 -188q-174 -144 -354 -460q-192 -336 -192 -540zM1016 526q0 -216 136 -216q160 0 304 208q132 192 132 360q0 82 -24 140q-32 78 -102 78q-162 0 -310 -206q-136 -194 -136 -364z" />
<glyph unicode="A" horiz-adv-x="1384" d="M102 54q0 54 82 322q62 202 110 338q128 360 196 506q176 378 320 378q198 0 340 -700l6 2q46 -8 72 -68q20 -48 20 -102q0 -90 -50 -100q54 -360 54 -396q0 -48 -18 -90q-24 -54 -68 -54q-52 0 -74 92q0 4 -16 138q-16 152 -40 314q-272 -24 -644 -184 q-38 -106 -68 -199t-58 -181q-52 -130 -110 -130q-28 0 -44 46q-10 32 -10 68zM494 742q170 30 504 120q-82 400 -196 400q-118 0 -308 -520z" />
<glyph unicode="B" horiz-adv-x="1232" d="M88 1442q0 65 70 65q8 0 16 -1q266 92 460 92q196 0 344 -92q172 -108 172 -292q0 -312 -364 -526q116 -32 189 -116t73 -202q0 -186 -164 -310q-150 -114 -344 -114q-90 0 -204 26q-120 28 -192 70q-24 14 -40 62q-14 40 -14 74q0 44 26 44q10 0 22 -6l14 -10 q6 128 6 260q0 284 -24 570q-4 40 -26 206q-20 136 -20 200zM308 812q0 -64 4 -120q210 28 402 160q266 184 266 328q0 82 -88 122q-64 30 -158 30q-154 0 -418 -60q4 -44 4 -92q0 -62 -6 -184t-6 -184zM326 502q18 -230 32 -384q70 -18 140 -18q114 0 222 54 q132 64 132 168q0 108 -166 154q-108 30 -250 30q-52 0 -110 -4z" />
<glyph unicode="C" horiz-adv-x="1356" d="M66 502q0 404 272 732q286 346 682 346q160 0 280 -46q66 -26 66 -86q0 -78 -61 -199t-123 -169q-28 -20 -36 -20q-12 0 -12 24q0 18 8 54t8 56q0 44 -24 82q-26 46 -66 46q-14 0 -38 -4q-220 -32 -338 -86q-160 -72 -264 -224q-154 -226 -154 -446q0 -310 270 -420 q58 -24 122 -24q108 0 248 72q82 40 214 130q104 70 124 70q32 0 32 -64q0 -100 -70 -144q-144 -92 -320 -152q-194 -66 -346 -66q-238 0 -362 154q-112 142 -112 384z" />
<glyph unicode="D" horiz-adv-x="1438" d="M70 1382q0 62 76 62q20 0 36 -4q444 138 720 138q192 0 326 -82q160 -98 160 -278q0 -262 -310 -626q-272 -320 -758 -600q-46 -26 -64 -26q-120 0 -122 178v72q0 231 -10 638q-14 192 -34 365t-20 163zM316 476q0 -118 8 -224q224 76 482 306q386 342 386 574 q0 110 -86 166q-72 46 -188 46q-210 0 -594 -112q8 -124 8 -250q0 -84 -8 -253t-8 -253z" />
<glyph unicode="E" horiz-adv-x="1302" d="M68 1350q0 60 88 62q428 178 724 178q132 0 184 -28q78 -38 78 -158q0 -100 -56 -100q-6 0 -36 6q-88 20 -186 20q-274 0 -558 -140q8 -212 14 -554q160 22 400 78q378 88 400 92q46 -8 74 -68q24 -48 24 -102q0 -100 -60 -100q-14 0 -30 8h-46h-24q-336 0 -734 -160 l-2 -58q0 -66 4 -108q272 62 536 62q158 0 258 -17t100 -131q0 -58 -52 -58q-34 0 -112 9t-120 9q-294 0 -600 -112q-38 -50 -84 -50q-126 0 -126 268q0 38 3 96t3 72q0 288 -18 526q-4 72 -32 318q-14 128 -14 140z" />
<glyph unicode="F" horiz-adv-x="1216" d="M44 1336q0 64 64 64q10 0 22 -2q428 178 726 178q134 0 184 -26q78 -40 78 -160q0 -100 -56 -100q-6 0 -36 6q-88 20 -184 20q-304 0 -614 -166q22 -346 40 -592q168 20 416 78l412 96q46 -8 74 -68q24 -50 24 -104q0 -98 -54 -98q-18 0 -55 5t-55 5q-328 0 -742 -168 q12 -190 28 -332q-38 -56 -88 -56q-126 0 -126 266q0 36 3 95t3 73q0 288 -18 528q-4 50 -26 234q-20 154 -20 224z" />
<glyph unicode="G" horiz-adv-x="1646" d="M96 506q0 400 272 736q290 356 682 356q156 0 284 -50q96 -38 96 -150q0 -54 -30 -126q-38 -82 -86 -82q-20 0 -32 40q-20 54 -34 74q-32 40 -96 40q-16 0 -98 -14q-42 -4 -128 -18q-314 -58 -470 -288t-156 -464q0 -168 106 -294q112 -132 278 -132q172 0 408 150 q258 164 258 326q0 86 -98 124q-70 28 -170 28q-136 0 -274 -38q-88 -24 -258 -94q-40 -16 -56 -16q-28 0 -28 36q0 72 84 138q148 116 228 156q124 62 268 62q204 0 346 -90q170 -104 170 -296q0 -38 -6 -68q-38 -216 -400 -404q-326 -170 -574 -170q-240 0 -366 146 q-120 140 -120 382z" />
<glyph unicode="H" horiz-adv-x="1420" d="M128 1432q0 62 78 62q52 0 97 -26t45 -76q0 -8 -2 -24v-26v2q1 0 8 -110q6 -106 18 -576q140 18 726 154q-12 256 -36 474q-2 14 -16 108q-12 68 -12 110q0 62 78 62q54 0 96 -22q50 -28 50 -78q0 -10 -2 -30v-30q0 -40 4 -106q8 -84 8 -104q4 -96 14 -528 q6 -324 26 -528q-34 -54 -84 -54q-124 0 -124 182q0 40 2 126t2 132v40q-316 -4 -724 -158q6 -202 20 -342q-36 -54 -86 -54q-126 0 -126 264q0 38 2 96t2 72q0 432 -44 818q-20 182 -20 170z" />
<glyph unicode="I" horiz-adv-x="1276" d="M78 1316q0 86 36 114t226 90q156 52 246 74q156 40 308 40q130 0 182 -24q82 -38 82 -150t-56 -112q-6 0 -36 6q-80 18 -182 18q-76 0 -154 -10q10 -382 42 -1148l88 2h30q133 0 230 -16q100 -16 100 -126q0 -62 -60 -62q-36 0 -113 9t-117 9q-270 0 -536 -92 q-34 -12 -66 -26q-48 -18 -62 -18q-40 0 -84 55t-44 95q0 42 36 72q202 60 400 84q0 706 -50 1116q-70 -22 -310 -140q-28 -14 -48 -14q-46 0 -70 58q-18 42 -18 96z" />
<glyph unicode="J" horiz-adv-x="1410" d="M132 534q0 72 58 72q40 0 104 -38q298 -462 452 -462q188 0 188 468q0 350 -88 794q-216 -26 -526 -186q-32 -18 -50 -18q-44 0 -70 64q-20 48 -20 100q0 80 38 109t228 89q154 50 246 74q160 40 312 40q130 0 182 -28q78 -40 78 -158q0 -100 -54 -100q-22 0 -68 8 q-54 8 -72 10q36 -298 36 -580q0 -320 -50 -534q-84 -368 -296 -368q-42 0 -88 12q-132 38 -334 264q-206 234 -206 368z" />
<glyph unicode="K" horiz-adv-x="1330" d="M94 1416q0 62 80 62q54 0 94 -24q50 -28 50 -78q0 -14 -2 -38v-38q0 -54 6 -142q6 -106 8 -138l10 -306q378 352 696 758q22 32 70 90q18 18 38 18q40 0 77 -53t37 -95q0 -34 -54 -84q-32 -36 -98 -106q-18 -20 -494 -518q364 -296 548 -636q18 -34 18 -62q0 -34 -32 -73 t-66 -39q-26 0 -60 58q-194 340 -570 578q-54 -58 -102 -114q6 -232 20 -386q-34 -52 -82 -52q-126 0 -126 175q0 126 2 218q0 455 -46 859q-22 176 -22 166z" />
<glyph unicode="L" horiz-adv-x="1028" d="M46 1582q0 70 78 70q56 0 100 -31t44 -85q0 -12 -2 -34v-32q0 -38 4 -100q4 -78 6 -98q6 -348 30 -1042q204 50 412 50q118 0 156 -4q102 -16 124 -72q10 -28 10 -72q0 -56 -42 -56q-28 0 -89 8t-93 8q-226 0 -452 -88q-30 -14 -60 -30q-44 -18 -60 -18q-44 0 -74 66 q-24 56 -24 106q0 788 -48 1264q-20 202 -20 190z" />
<glyph unicode="M" horiz-adv-x="1826" d="M98 148q0 28 36 248q62 388 142 666q148 514 310 514q186 0 326 -654q178 584 366 584q286 0 430 -1410q-34 -54 -84 -54q-26 0 -48 12q-70 38 -78 170q-30 454 -38 522q-54 410 -178 410q-84 0 -144 -214q-42 -154 -70 -424q-16 -158 -30 -314q-16 -118 -76 -118 q-96 0 -168 128l-2 40q-50 894 -222 894q-126 0 -204 -502q-48 -302 -60 -626q-36 -54 -84 -54q-60 0 -96 64q-28 54 -28 118z" />
<glyph unicode="N" horiz-adv-x="1538" d="M130 104q0 24 8 88q26 222 54 444q54 386 126 610q100 308 230 308q132 0 310 -338q58 -112 204 -462q48 -112 56 -130q40 -92 66 -122q12 -16 18 -16q26 0 26 118q0 202 -60 716q-10 66 -18 134q-12 78 -12 132q0 50 34 88t84 38q110 0 124 -152q6 -60 18 -498 q8 -266 8 -384q0 -662 -116 -662q-68 0 -212 284q-130 264 -262 528q-154 284 -250 284q-132 0 -194 -444q-16 -102 -46 -556q-10 -142 -48 -178q-24 -20 -46 -20q-46 0 -78 76q-24 60 -24 114z" />
<glyph unicode="O" horiz-adv-x="1808" d="M120 726q0 266 248 522q156 160 360 272q234 130 426 130q242 0 394 -234q134 -202 134 -460q0 -210 -86 -417t-238 -359q-280 -284 -562 -284q-274 0 -482 284q-194 262 -194 546zM302 660q0 -188 154 -378q162 -200 344 -200q270 0 538 342q72 90 116 223t44 249 q0 184 -86 318q-102 156 -276 156q-152 0 -351 -110t-335 -268q-148 -174 -148 -332z" />
<glyph unicode="P" horiz-adv-x="1202" d="M84 1424q0 65 66 65q14 0 30 -3q264 94 456 94q194 0 342 -106q164 -116 164 -302q0 -198 -176 -406q-200 -236 -642 -332q8 -102 26 -304q-50 -154 -118 -154q-86 0 -86 272q0 42 2 101t2 67q0 298 -20 552q-4 50 -28 230q-18 148 -18 226zM266 1290q14 -224 46 -672 q206 32 392 182q244 198 244 358q0 100 -94 152q-76 40 -186 40q-154 0 -402 -60z" />
<glyph unicode="Q" horiz-adv-x="1774" d="M116 748q0 264 248 520q154 160 354 272q232 128 422 128q256 0 406 -226q130 -198 130 -466q0 -366 -230 -670q70 -166 224 -494q-12 -114 -110 -114q-76 0 -128 128q-14 32 -126 328q-260 -236 -514 -236q-272 0 -482 284q-194 262 -194 546zM298 684q0 -192 152 -382 q160 -200 348 -200q208 0 434 226q-110 244 -232 480q-46 76 -126 234q-8 16 -8 30q0 44 50 74t96 30q20 0 30 -4q36 -16 62 -86q20 -62 64 -152q64 -136 72 -150q50 -114 126 -290q130 212 130 424q0 184 -88 318q-102 152 -278 152q-150 0 -349 -109t-335 -265 q-148 -172 -148 -330z" />
<glyph unicode="R" horiz-adv-x="1270" d="M94 1410q0 63 66 63q14 0 30 -3q260 94 450 94q200 0 348 -104q164 -114 164 -306q0 -194 -138 -362q-116 -142 -310 -242q102 -234 346 -706q-14 -114 -108 -114q-76 0 -132 128q-80 182 -166 328q-144 240 -230 240q-64 0 -64 -150q0 -68 10 -162q-52 -152 -118 -152 q-88 0 -88 280q0 48 3 114t3 74q0 280 -18 522q-4 50 -28 232q-20 150 -20 226zM276 1274q14 -224 44 -672q208 32 392 182q246 200 246 360q0 100 -94 150q-76 40 -184 40q-154 0 -404 -60z" />
<glyph unicode="S" horiz-adv-x="1030" d="M96 -78q0 26 28 64q606 230 606 432q0 100 -156 222q-146 108 -292 218q-156 134 -156 258q0 140 188 300q132 110 316 204q80 42 138 42q46 0 80 -22q42 -24 42 -66q0 -26 -14 -52q-20 -32 -94 -60q-114 -42 -216 -126q-126 -102 -126 -198q0 -94 132 -216 q126 -106 250 -212q134 -132 134 -248q0 -240 -580 -524q-110 -54 -216 -54q-64 0 -64 38z" />
<glyph unicode="T" horiz-adv-x="1264" d="M110 1280q0 84 38 112q46 32 226 90q142 46 246 72q156 40 308 40q128 0 180 -24q82 -38 82 -150t-56 -112q-6 0 -36 6q-80 18 -184 18q-110 0 -218 -20q-2 18 -2 -56l12 -196q22 -338 74 -1012q-50 -154 -118 -154q-86 0 -86 268q0 44 3 108t3 72q0 476 -60 924 q-24 -8 -174 -80q-136 -64 -148 -64q-46 0 -72 60q-18 44 -18 98z" />
<glyph unicode="U" horiz-adv-x="1280" d="M120 322q0 102 12 262q24 264 24 598q0 38 -3 116t-3 118q0 92 20 130q28 54 114 54q100 0 100 -126q0 -18 -4 -64q-10 -182 -22 -364q-12 -216 -34 -362q-24 -184 -24 -282q0 -182 94 -182q82 0 284 112q52 28 278 166l-30 450q0 4 -18 214q-12 132 -12 216 q0 112 76 112q128 0 128 -194v-12q-4 -218 -4 -296q0 -410 42 -778q20 -176 20 -164q0 -60 -72 -60q-86 0 -102 44q-6 12 -6 116q0 34 -4 92q-8 70 -8 94q-262 -152 -346 -196q-250 -130 -354 -130q-96 0 -130 118q-16 64 -16 198z" />
<glyph unicode="V" horiz-adv-x="1224" d="M116 1624q0 90 110 90q108 0 146 -174q28 -140 68 -388q46 -276 68 -388q48 -252 94 -252q44 0 108 248q28 106 184 730q84 100 142 100q64 0 64 -78q0 -40 -40 -152q-10 -28 -116 -358q-138 -424 -225 -717t-145 -293q-60 0 -154 448q-66 318 -192 764l-64 216 q-48 160 -48 204z" />
<glyph unicode="W" horiz-adv-x="1818" d="M104 1472q30 54 90 54q148 0 162 -180l28 -588q42 -472 146 -472t168 486q30 302 62 604q18 114 80 114q46 0 102 -46q44 -40 74 -88q10 -334 18 -450q20 -254 66 -444q56 -224 118 -224q116 0 196 586q48 346 66 724q32 56 90 56q64 0 106 -62q38 -54 38 -122 q0 -30 -38 -258q-66 -390 -146 -660q-146 -508 -310 -508q-186 0 -322 652q-182 -582 -370 -582q-286 0 -424 1408z" />
<glyph unicode="X" horiz-adv-x="1266" d="M110 1564q0 38 24 67t64 29q46 0 104 -38q66 -44 112 -150q76 -196 234 -584q98 222 296 664q60 136 120 136q40 0 64 -35t24 -75q0 -70 -60 -182q-126 -230 -362 -700q70 -156 140 -296q56 -98 162 -298q12 -26 12 -42q0 -32 -37 -52t-71 -20q-44 0 -74 44 q-10 18 -36 84q-34 64 -98 192l-90 184q-60 -166 -198 -478q-24 -46 -58 -46q-36 0 -73 30t-37 66q0 34 52 120q10 20 114 250q50 112 110 236q-138 260 -404 784q-34 66 -34 110z" />
<glyph unicode="Y" horiz-adv-x="1408" d="M106 1500q0 76 94 76q62 0 120 -66q52 -58 70 -124q4 -54 14 -162q58 -504 310 -612q106 306 326 914q52 140 142 140q50 0 80 -54q24 -46 24 -100q0 -60 -36 -140q-104 -226 -302 -680q-98 -242 -182 -492q-20 -84 -76 -244q-24 -50 -70 -50q-44 0 -84 37t-40 81 q0 22 34 90q10 20 110 298q-302 242 -446 772q-12 62 -46 184q-42 110 -42 132z" />
<glyph unicode="Z" horiz-adv-x="1430" d="M72 150q0 114 246 328q230 188 458 374q246 210 246 312q0 138 -394 138q-58 0 -174 -9t-174 -9q-152 0 -152 126q0 64 49 117t113 53q24 0 46 -8h120h59q277 0 469 -34q390 -66 390 -246q0 -142 -250 -380q-30 -30 -460 -392q-250 -208 -250 -284q0 -80 220 -80 q160 0 600 82q100 -22 100 -114q0 -82 -102 -100q-212 -40 -616 -40q-544 0 -544 166z" />
<glyph unicode="[" horiz-adv-x="1104" d="M2 1566q0 88 14 154q-10 34 -10 62q0 42 18 55t60 13q154 0 460 41t456 41q112 0 112 -94q0 -64 -36 -88q-22 -14 -94 -26q-64 -18 -194 -48q-236 -48 -512 -48q0 -6 -2 -24v-26v-10q4 -84 22 -230q20 -164 26 -232q14 -228 14 -466q0 -338 -32 -680q70 6 348 40 q216 28 348 28q112 0 112 -92q0 -64 -36 -88q-22 -14 -94 -26q-64 -18 -194 -48q-234 -48 -568 -46q-56 -50 -126 -50q-90 0 -90 90q0 20 4 62t4 64q0 72 2 218t2 220v412q0 138 -7 411t-7 411z" />
<glyph unicode="\" horiz-adv-x="1524" d="M34 1604q0 78 68 78q78 0 228 -194q302 -390 916 -1160q54 -70 168 -202q74 -80 74 -110q0 -32 -29 -53t-61 -21q-82 0 -186 100q-32 32 -230 248q-414 452 -636 778q-64 110 -200 328q-34 48 -70 98q-42 62 -42 110z" />
<glyph unicode="]" horiz-adv-x="1392" d="M132 -64q0 104 152 134q218 34 654 114q-34 342 -34 686q0 282 22 564q4 36 24 194q16 130 16 186q0 54 0 48q-262 -74 -494 -94q-72 0 -214 -8q-46 -6 -58 -6q-68 0 -68 84q0 108 152 136q22 4 438 70q266 42 436 92q40 12 38 12q38 0 38 -62q0 -30 -8 -60 q18 -70 16 -154v-36q-20 -1254 -20 -1346q0 -54 4 -161t4 -161q0 -16 4 -48t4 -48q0 -56 -41 -87t-99 -31q-46 0 -78 22q-280 -86 -548 -110q-72 0 -214 -8q-42 -4 -56 -4q-70 0 -70 82z" />
<glyph unicode="^" horiz-adv-x="1134" d="M-54 1654q0 22 32 40q70 40 300 232q212 180 264 200q20 20 32 20q10 0 34 -22q90 -76 538 -346q68 -40 68 -84q0 -32 -27 -63t-59 -31q-12 0 -62 24t-152 70q-184 92 -346 236l-564 -350q-58 38 -58 74z" />
<glyph unicode="_" horiz-adv-x="1740" d="M118 -120q0 46 34 58q14 6 72 6q78 0 336 16q86 4 440 38q272 24 440 24q152 0 152 -90q0 -66 -58 -90q-26 -10 -114 -20q-96 -18 -288 -50q-314 -44 -730 -44q-284 0 -284 152z" />
<glyph unicode="`" horiz-adv-x="632" d="M146 1602q0 156 88 156q34 0 68 -22q180 -254 180 -618q0 -156 -66 -156q-54 0 -104 56q-58 64 -114 280q-52 198 -52 304z" />
<glyph unicode="a" horiz-adv-x="1384" d="M102 54q0 54 82 322q62 202 110 338q128 360 196 506q176 378 320 378q198 0 340 -700l6 2q46 -8 72 -68q20 -48 20 -102q0 -90 -50 -100q54 -360 54 -396q0 -48 -18 -90q-24 -54 -68 -54q-52 0 -74 92q0 2 -16 138q-16 152 -40 314q-272 -24 -644 -184 q-38 -106 -68 -199t-58 -181q-52 -130 -110 -130q-28 0 -44 46q-10 32 -10 68zM494 742q170 30 504 120q-82 400 -196 400q-118 0 -308 -520z" />
<glyph unicode="b" horiz-adv-x="1234" d="M88 1442q0 65 70 65q8 0 16 -1q266 92 460 92q196 0 344 -92q172 -108 172 -292q0 -312 -364 -526q116 -32 189 -116t73 -202q0 -186 -164 -310q-150 -114 -344 -114q-90 0 -204 26q-120 28 -192 70q-24 14 -40 62q-14 40 -14 74q0 44 26 44q10 0 22 -6l14 -10 q6 128 6 260q0 284 -24 570q-4 40 -26 206q-20 136 -20 200zM308 812q0 -64 4 -120q210 28 402 160q266 184 266 328q0 82 -88 122q-64 30 -158 30q-154 0 -418 -60q4 -44 4 -92q0 -62 -6 -184t-6 -184zM326 502q18 -230 32 -384q70 -18 140 -18q114 0 222 54 q132 64 132 168q0 108 -166 154q-108 30 -250 30q-52 0 -110 -4z" />
<glyph unicode="c" horiz-adv-x="1292" d="M10 502q0 404 272 732q288 346 684 346q160 0 278 -46q66 -26 66 -86q0 -78 -61 -199t-123 -169q-26 -20 -36 -20q-12 0 -12 24q0 18 8 54t8 56q0 44 -22 82q-26 46 -68 46q-14 0 -38 -4q-218 -32 -338 -86q-160 -72 -264 -224q-154 -226 -154 -446q0 -310 270 -420 q58 -24 122 -24q110 0 250 72q80 40 212 130q104 70 124 70q32 0 32 -64q0 -100 -70 -144q-144 -92 -320 -152q-194 -66 -346 -66q-238 0 -362 154q-112 142 -112 384z" />
<glyph unicode="d" horiz-adv-x="1440" d="M70 1382q0 62 76 62q20 0 36 -4q446 138 720 138q192 0 328 -82q160 -98 160 -278q0 -262 -312 -626q-272 -320 -758 -600q-46 -26 -64 -26q-118 0 -122 178v72q0 231 -10 638q-12 192 -33 365t-21 163zM316 476q0 -118 8 -224q224 76 482 306q386 342 386 574 q0 110 -86 166q-72 46 -188 46q-208 0 -594 -112q8 -124 8 -250q0 -84 -8 -253t-8 -253z" />
<glyph unicode="e" horiz-adv-x="1302" d="M68 1350q0 60 88 62q428 178 724 178q132 0 184 -28q78 -38 78 -158q0 -100 -56 -100q-6 0 -36 6q-88 20 -186 20q-274 0 -558 -140q8 -212 14 -554q160 22 400 78q378 88 400 92q46 -8 74 -68q24 -48 24 -102q0 -100 -60 -100q-14 0 -30 8h-46h-24q-336 0 -734 -160 l-2 -58q0 -66 4 -108q272 62 536 62q158 0 258 -17t100 -131q0 -58 -54 -58q-32 0 -110 9t-120 9q-294 0 -600 -112q-38 -50 -84 -50q-126 0 -126 268q0 38 3 96t3 72q0 288 -18 526q-4 72 -32 318q-14 128 -14 140z" />
<glyph unicode="f" horiz-adv-x="1216" d="M44 1336q0 64 64 64q10 0 22 -2q428 178 726 178q134 0 186 -26q76 -40 76 -160q0 -100 -56 -100q-6 0 -36 6q-88 20 -184 20q-304 0 -614 -166q22 -346 40 -592q168 20 416 78l412 96q46 -8 74 -68q24 -50 24 -104q0 -98 -54 -98q-18 0 -54 5t-56 5q-326 0 -742 -168 q12 -190 28 -332q-36 -56 -88 -56q-124 0 -124 266q0 36 2 95t2 73q0 288 -18 528q-2 50 -26 234q-20 154 -20 224z" />
<glyph unicode="g" horiz-adv-x="1646" d="M98 506q0 400 274 736q290 356 682 356q156 0 284 -50q96 -38 96 -150q0 -54 -32 -126q-36 -82 -84 -82q-20 0 -34 40q-18 54 -32 74q-32 40 -98 40q-16 0 -96 -14q-44 -4 -128 -18q-316 -58 -472 -288t-156 -464q0 -168 106 -294q112 -132 278 -132q172 0 410 150 q258 164 258 326q0 86 -98 124q-70 28 -172 28q-136 0 -272 -38q-90 -24 -258 -94q-42 -16 -56 -16q-28 0 -28 36q0 72 84 138q148 116 228 156q122 62 266 62q206 0 348 -90q168 -104 168 -296q0 -38 -6 -68q-36 -216 -398 -404q-328 -170 -574 -170q-240 0 -368 146 q-120 140 -120 382z" />
<glyph unicode="h" horiz-adv-x="1432" d="M128 1432q0 62 78 62q52 0 97 -26t45 -76q0 -8 -2 -24v-26v2q1 0 8 -110q6 -106 18 -576q140 18 726 154q-12 256 -36 474q-2 14 -16 108q-12 68 -12 110q0 62 78 62q54 0 96 -22q50 -28 50 -78q0 -10 -2 -30v-30q0 -40 4 -106q8 -84 8 -104q4 -96 14 -528 q6 -324 26 -528q-34 -54 -84 -54q-124 0 -124 182q0 40 2 126t2 132v40q-316 -4 -724 -158q6 -202 20 -342q-36 -54 -86 -54q-126 0 -126 264q0 38 2 96t2 72q0 432 -44 818q-20 182 -20 170z" />
<glyph unicode="i" horiz-adv-x="532" d="M132 1438q0 64 92 64q48 0 88 -29t40 -73q0 -10 -2 -32v-30q0 -42 6 -110q6 -86 6 -108q4 -86 16 -524q6 -320 26 -524q-36 -54 -86 -54q-126 0 -126 266q0 38 2 94t2 72q0 434 -44 818q-20 182 -20 170z" />
<glyph unicode="j" horiz-adv-x="1322" d="M96 534q0 72 58 72q40 0 104 -38q296 -462 450 -462q188 0 188 468q0 350 -86 794q-216 -26 -526 -186q-34 -18 -50 -18q-46 0 -70 64q-20 48 -20 100q0 80 38 109t226 89q154 50 248 74q158 40 310 40q130 0 184 -28q78 -40 78 -158q0 -100 -56 -100q-20 0 -70 8t-68 10 q34 -298 34 -580q0 -320 -48 -534q-84 -368 -298 -368q-42 0 -86 12q-134 38 -334 264q-206 234 -206 368z" />
<glyph unicode="k" horiz-adv-x="1300" d="M96 1416q0 62 78 62q56 0 96 -24q50 -28 50 -78q0 -14 -2 -38v-38q0 -54 6 -142q6 -106 8 -138l10 -306q378 352 696 758q22 32 70 90q18 18 38 18q40 0 77 -53t37 -95q0 -34 -54 -84q-32 -36 -98 -106q-18 -20 -494 -518q364 -296 548 -636q18 -34 18 -62q0 -34 -33 -73 t-65 -39q-28 0 -60 58q-194 340 -570 578q-54 -58 -102 -114q6 -232 20 -386q-34 -52 -84 -52q-124 0 -124 174q0 135 2 220q0 454 -48 858q-20 176 -20 166z" />
<glyph unicode="l" horiz-adv-x="1026" d="M44 1582q0 70 76 70q58 0 101 -31t43 -85v-34q-2 -22 -2 -32q0 -38 6 -100q4 -78 6 -98q6 -348 30 -1042q204 50 412 50q118 0 156 -4q102 -16 124 -72q10 -28 10 -72q0 -56 -42 -56q-30 0 -90 8t-92 8q-228 0 -454 -88q-30 -14 -60 -30q-42 -18 -58 -18q-44 0 -74 66 q-24 56 -24 106q0 788 -48 1264q-20 202 -20 190z" />
<glyph unicode="m" horiz-adv-x="1792" d="M98 148q0 28 36 248q62 388 142 666q148 514 310 514q186 0 326 -654q178 584 366 584q286 0 430 -1410q-34 -54 -84 -54q-26 0 -48 12q-70 38 -78 170q-30 454 -38 522q-54 410 -178 410q-84 0 -144 -214q-42 -154 -70 -424q-16 -158 -30 -314q-16 -118 -76 -118 q-96 0 -168 128l-2 40q-50 894 -222 894q-126 0 -204 -502q-48 -302 -60 -626q-36 -54 -84 -54q-60 0 -96 64q-28 54 -28 118z" />
<glyph unicode="n" horiz-adv-x="1538" d="M130 104q0 24 8 88q26 222 54 444q54 386 126 610q100 308 230 308q132 0 310 -338q58 -112 204 -462q48 -112 56 -130q40 -92 66 -122q12 -16 18 -16q26 0 26 118q0 202 -60 716q-10 66 -18 134q-12 78 -12 132q0 50 34 88t84 38q110 0 124 -152q6 -60 18 -498 q8 -266 8 -384q0 -662 -116 -662q-68 0 -212 284q-130 264 -262 528q-154 284 -248 284q-134 0 -196 -444q-14 -102 -46 -556q-10 -142 -48 -178q-24 -20 -46 -20q-46 0 -78 76q-24 60 -24 114z" />
<glyph unicode="o" horiz-adv-x="1806" d="M120 726q0 266 248 522q154 160 358 272q234 130 426 130q244 0 396 -234q132 -202 132 -460q0 -210 -86 -417t-236 -359q-282 -284 -564 -284q-272 0 -482 284q-192 262 -192 546zM302 660q0 -188 152 -378q162 -200 346 -200q268 0 538 342q70 90 115 223t45 249 q0 184 -88 318q-100 156 -274 156q-152 0 -352 -110t-334 -268q-148 -174 -148 -332z" />
<glyph unicode="p" horiz-adv-x="1198" d="M78 1424q0 65 66 65q14 0 30 -3q266 94 458 94q194 0 342 -106q164 -116 164 -302q0 -198 -176 -406q-200 -236 -644 -332q10 -102 26 -304q-50 -154 -118 -154q-84 0 -84 272q0 42 2 101t2 67q0 298 -20 552q-4 50 -28 230q-20 148 -20 226zM260 1290q16 -224 46 -672 q208 32 392 182q246 198 246 358q0 100 -94 152q-76 40 -186 40q-154 0 -404 -60z" />
<glyph unicode="q" horiz-adv-x="1774" d="M116 748q0 264 248 520q154 160 354 272q232 128 422 128q256 0 406 -226q130 -198 130 -466q0 -366 -230 -670q70 -166 224 -494q-12 -114 -110 -114q-76 0 -128 128q-14 32 -126 328q-260 -236 -512 -236q-274 0 -484 284q-194 262 -194 546zM298 684q0 -192 152 -382 q160 -200 348 -200q208 0 434 226q-110 244 -232 480q-46 76 -126 234q-8 16 -8 30q0 44 50 74t96 30q20 0 30 -4q36 -16 62 -86q20 -62 64 -152q64 -136 72 -150q50 -114 126 -290q130 212 130 424q0 184 -88 318q-102 152 -276 152q-152 0 -351 -109t-335 -265 q-148 -172 -148 -330z" />
<glyph unicode="r" horiz-adv-x="1270" d="M94 1410q0 63 66 63q14 0 30 -3q260 94 450 94q200 0 348 -104q164 -114 164 -306q0 -194 -138 -362q-116 -142 -310 -242q102 -234 346 -706q-14 -114 -108 -114q-76 0 -132 128q-80 182 -166 328q-144 240 -230 240q-64 0 -64 -150q0 -68 10 -162q-52 -152 -118 -152 q-88 0 -88 280q0 48 3 114t3 74q0 280 -18 522q-4 50 -28 232q-20 150 -20 226zM276 1274q14 -224 44 -672q208 32 392 182q246 200 246 360q0 100 -94 150q-76 40 -184 40q-154 0 -404 -60z" />
<glyph unicode="s" horiz-adv-x="1032" d="M96 -78q0 26 28 64q606 230 606 432q0 100 -156 222q-146 108 -290 218q-156 134 -156 258q0 140 188 300q130 110 314 204q80 42 140 42q44 0 82 -23t38 -65q0 -26 -14 -52q-18 -32 -94 -60q-114 -42 -216 -126q-126 -102 -126 -198q0 -94 134 -216l248 -212 q134 -132 134 -248q0 -240 -580 -524q-110 -54 -216 -54q-64 0 -64 38z" />
<glyph unicode="t" horiz-adv-x="1266" d="M110 1280q0 84 42 114t224 88q142 46 244 72q158 40 308 40q128 0 180 -24q84 -38 84 -150t-56 -112q-6 0 -36 6q-82 18 -184 18q-110 0 -218 -20q-2 18 -2 -56l12 -196q20 -338 74 -1012q-52 -154 -118 -154q-86 0 -86 268q0 44 2 108t2 72q0 476 -58 924 q-26 -8 -174 -80q-136 -64 -148 -64q-48 0 -72 60q-20 44 -20 98z" />
<glyph unicode="u" horiz-adv-x="1284" d="M124 322q0 102 14 262q22 264 22 598q0 38 -3 116t-3 118q0 92 20 130q28 54 116 54q98 0 98 -126q0 -18 -4 -64l-20 -364q-14 -216 -34 -362q-26 -184 -26 -282q0 -182 96 -182q80 0 284 112q50 28 276 166l-30 450q0 4 -18 214q-12 132 -12 216q0 112 76 112 q128 0 128 -194v-12q-4 -218 -4 -296q0 -410 42 -778q20 -176 20 -164q0 -60 -72 -60q-86 0 -102 44q-6 12 -6 116q0 34 -4 92q-6 70 -8 94q-262 -152 -346 -196q-250 -130 -354 -130q-96 0 -128 118q-18 64 -18 198z" />
<glyph unicode="v" horiz-adv-x="1226" d="M118 1624q0 90 108 90q110 0 146 -174q30 -140 70 -388q44 -276 66 -388q50 -252 94 -252t110 248q28 106 182 730q84 100 144 100q64 0 64 -78q0 -40 -42 -152q-10 -28 -116 -358q-136 -424 -224 -717t-144 -293q-62 0 -154 448q-66 318 -192 764q-34 108 -66 216 q-46 160 -46 204z" />
<glyph unicode="w" horiz-adv-x="1798" d="M82 1472q30 54 90 54q148 0 162 -180l28 -588q42 -472 146 -472t168 486q30 302 62 604q18 114 80 114q46 0 102 -46q44 -40 74 -88q10 -334 18 -450q20 -254 66 -444q56 -224 118 -224q116 0 196 586q46 346 66 724q32 56 90 56q64 0 106 -62q38 -54 38 -122 q0 -30 -40 -258q-64 -390 -144 -660q-146 -508 -310 -508q-186 0 -322 652q-182 -582 -370 -582q-286 0 -424 1408z" />
<glyph unicode="x" horiz-adv-x="1274" d="M114 1564q0 38 24 67t62 29q46 0 104 -38q68 -44 112 -150q76 -196 234 -584q98 222 296 664q62 136 122 136q38 0 62 -35t24 -75q0 -70 -60 -182q-126 -230 -362 -700q70 -156 140 -296q56 -98 162 -298q12 -26 12 -42q0 -32 -36 -52t-72 -20q-44 0 -72 44 q-12 18 -38 84l-96 192l-92 184q-60 -166 -198 -478q-24 -46 -58 -46q-36 0 -73 30t-37 66q0 34 52 120q12 20 116 250q50 112 108 236q-138 260 -404 784q-32 66 -32 110z" />
<glyph unicode="y" horiz-adv-x="1408" d="M108 1500q0 76 92 76q62 0 122 -66q52 -58 70 -124q4 -54 14 -162q58 -504 310 -612q106 306 326 914q52 140 142 140q50 0 78 -54q24 -46 24 -100q0 -60 -34 -140q-104 -226 -302 -680q-100 -242 -182 -492q-20 -84 -76 -244q-24 -50 -70 -50q-44 0 -84 37t-40 81 q0 22 34 90q10 20 110 298q-302 242 -448 772q-12 62 -44 184q-42 110 -42 132z" />
<glyph unicode="z" horiz-adv-x="1406" d="M72 150q0 114 246 328q228 188 458 374q246 210 246 312q0 138 -394 138q-58 0 -175 -9t-175 -9q-150 0 -150 126q0 64 48 117t112 53q24 0 46 -8h122h59q275 0 469 -34q388 -66 388 -246q0 -142 -248 -380q-32 -30 -462 -392q-248 -208 -248 -284q0 -80 220 -80 q158 0 598 82q102 -22 102 -114q0 -82 -104 -100q-212 -40 -616 -40q-542 0 -542 166z" />
<glyph unicode="|" horiz-adv-x="608" d="M140 1574q0 268 130 268q96 0 124 -88q12 -34 20 -164q14 -122 40 -364q20 -264 20 -538q0 -506 -38 -728q-14 -82 -62 -140q-54 -66 -130 -66q-102 0 -102 86q0 -2 6 62q8 102 8 286v316q0 170 -8 534q-8 356 -8 536z" />
<glyph unicode="~" horiz-adv-x="1294" d="M-52 1468q0 54 50 118q444 238 646 238q88 0 132 -58q10 -12 54 -106q28 -58 70 -58q98 0 386 226q12 2 22 2q78 0 78 -110q0 -44 -30 -74q-16 -16 -70 -44q-116 -74 -230 -146q-148 -90 -248 -90q-60 0 -116 81t-146 81q-106 0 -281 -90t-203 -90q-44 0 -79 38t-35 82z " />
<glyph unicode="&#xa0;" />
<glyph unicode="&#xa1;" horiz-adv-x="488" d="M52 624q0 164 14 364q20 248 52 354q38 118 158 118q34 0 66 -18t32 -50q0 -8 -8 -50q-6 -34 -22 -294q-16 -236 -32 -856q-6 -184 -110 -184q-64 0 -102 58q-22 32 -26 134q-2 58 -12 212q-10 132 -10 212zM154 1774q0 70 56 126t126 56q124 0 124 -104q0 -70 -58 -123 t-130 -53q-118 0 -118 98z" />
<glyph unicode="&#xa2;" horiz-adv-x="1368" d="M90 574q0 166 146 330q126 140 298 216q-10 186 -10 176q0 222 104 222q68 0 88 -64q8 -26 12 -118q0 -40 20 -150q112 22 208 22q104 0 146 -24q60 -32 60 -128q0 -18 -16 -118q-28 -156 -106 -156q-30 0 -42 98q-6 64 -10 128q-116 -18 -222 -52q8 -216 6 -434 q84 22 178 56q68 28 134 54q94 38 132 38q78 0 78 -78q0 -58 -44 -88q-54 -36 -236 -94q-154 -52 -252 -74q-10 -158 -24 -210q-36 -130 -134 -130q-76 0 -76 58q0 24 5 77t5 79v92q-38 -2 -72 -2q-156 0 -256 58q-120 70 -120 216zM286 580q0 -104 178 -104q32 0 76 4 q0 62 -2 190v190q-252 -140 -252 -280z" />
<glyph unicode="&#xa3;" horiz-adv-x="1564" d="M64 684q0 34 17 63t63 37q6 2 80 8q70 14 214 38q-176 162 -176 366q0 192 100 350q114 182 296 182q142 0 242 -182q86 -156 86 -312q0 -98 -26 -98q-8 0 -66 60q-74 76 -124 114q-82 60 -150 60q-124 0 -124 -134q0 -116 74 -218q66 -94 174 -154q156 10 316 10 q178 0 234 -12q144 -30 144 -144q0 -68 -66 -68q-12 0 -38 3t-38 3q46 0 -472 -22l-266 -432q88 44 158 44q64 0 186 -58t196 -58q82 0 195 78t137 78q38 0 62 -41t24 -81q0 -112 -138 -210q-128 -88 -244 -88q-68 0 -201 27t-201 27q-132 0 -338 -146q-180 46 -180 182 q0 110 132 336q102 162 206 324q-296 -24 -348 -24q-140 0 -140 92z" />
<glyph unicode="&#xa5;" horiz-adv-x="1442" d="M118 1468q0 74 92 74q62 0 120 -66q54 -58 70 -124q4 -42 10 -124q40 -392 180 -552q84 10 176 18q148 412 284 798q34 98 88 124q28 14 54 14q50 0 80 -54q24 -44 24 -98q0 -60 -36 -140q-98 -212 -282 -638h82q248 4 248 -156q0 -64 -48 -64q-12 0 -39 2t-41 2 q-58 0 -148 -6q-122 -8 -146 -10q-20 -50 -28 -78q100 2 150 2q146 0 196 -14q104 -32 104 -142q0 -64 -48 -64q-12 0 -36 2t-36 2q-74 0 -208 -10q-188 -14 -206 -14q-22 -86 -78 -240q-20 -42 -64 -42t-84 36t-40 80q0 32 20 76q18 38 34 74q-240 -24 -278 -24 q-116 0 -116 94q0 34 16 61t50 35q10 4 66 10l108 24q120 24 242 38v2q-44 36 -74 70q-272 -26 -292 -26q-116 0 -116 94q0 62 40 84q24 14 92 22q40 10 118 28q-146 226 -228 558q-8 44 -30 128q-42 116 -42 134z" />
<glyph unicode="&#xa6;" />
<glyph unicode="&#xa7;" />
<glyph unicode="&#xa8;" d="M-28 1926q0 74 61 177t125 131q24 10 68 10q90 0 90 -76q0 -62 -58 -161t-107 -129t-107 -30q-72 0 -72 78zM480 1908q0 74 61 177t125 131q24 10 68 10q90 0 90 -76q0 -62 -58 -161t-107 -129t-107 -30q-72 0 -72 78z" />
<glyph unicode="&#xa9;" horiz-adv-x="1966" d="M102 342q0 156 86 380q72 194 172 352q130 204 398 340q260 132 510 132q184 0 301 -74t183 -244q100 -254 100 -448q0 -142 -44 -248q-124 -300 -428 -458q-270 -142 -620 -142q-260 0 -430 76q-228 106 -228 334zM360 444q0 -288 442 -288q574 0 740 418q34 86 34 176 q0 128 -70 306q-82 210 -246 210q-266 0 -412 -54q-188 -70 -312 -264q-70 -110 -118 -242q-58 -152 -58 -262zM622 524q0 224 148 386q142 156 366 196q142 -54 142 -158q0 -58 -52 -118q-26 -10 -46 -10q-40 0 -48 42q8 32 30 84q-36 24 -78 24q-114 0 -224 -156 q-102 -146 -102 -266q0 -128 144 -128q90 0 162 46q46 30 92 84q38 46 44 46q24 0 44 -30t20 -54q0 -32 -64 -96q-56 -56 -94 -78q-76 -44 -188 -44q-224 0 -270 90q-26 52 -26 140z" />
<glyph unicode="&#xaa;" horiz-adv-x="1384" d="M102 54q0 54 82 322q62 202 110 338q128 360 196 506q176 378 320 378q198 0 340 -700l6 2q46 -8 72 -68q20 -48 20 -102q0 -90 -50 -100q54 -360 54 -396q0 -48 -18 -90q-24 -54 -68 -54q-52 0 -74 92q0 2 -16 138q-16 152 -40 314q-272 -24 -644 -184 q-38 -106 -68 -199t-58 -181q-52 -130 -110 -130q-28 0 -44 46q-10 32 -10 68zM494 742q170 30 504 120q-82 400 -196 400q-118 0 -308 -520z" />
<glyph unicode="&#xad;" horiz-adv-x="1386" d="M136 808q0 70 56 70q192 0 450 26q224 24 448 50q22 2 40 2q114 0 114 -92q0 -62 -36 -84q-22 -14 -92 -26q-92 -22 -280 -60q-208 -32 -476 -32q-224 0 -224 146z" />
<glyph unicode="&#xae;" horiz-adv-x="1914" d="M100 378q0 156 82 372q70 182 172 344q130 204 386 338q250 130 498 130q184 0 300 -73t184 -241q98 -240 98 -434q0 -274 -190 -492q-176 -204 -450 -286q-222 -66 -456 -66q-246 0 -410 80q-214 106 -214 328zM354 466q0 -146 158 -220q122 -58 286 -58q288 0 504 148 q242 166 242 444q0 138 -66 296q-42 104 -88 150q-60 62 -154 62h-14q-250 0 -396 -58q-180 -72 -298 -258q-174 -276 -174 -506zM686 730q0 204 54 326q76 70 214 70q136 0 198 -76q52 -62 52 -100q0 -64 -93 -176t-93 -150q0 -16 10 -28q20 -46 110 -120q84 -70 84 -86 q0 -26 -66 -28q-132 60 -238 204h-24q-52 2 -74 -10q-28 -16 -28 -64q0 -10 3 -29t3 -29q0 -52 -50 -52q-38 0 -38 50q0 -16 -12 91t-12 207zM782 794q0 -130 64 -130q48 0 141 110t93 162q0 36 -24 70q-44 20 -98 20q-14 0 -84 -12q-92 -16 -92 -220z" />
<glyph unicode="&#xaf;" horiz-adv-x="1018" d="M-16 1848q0 70 54 70q192 0 450 26q224 24 448 50q22 2 40 2q114 0 114 -92q0 -62 -36 -84q-22 -14 -92 -26q-92 -22 -278 -60q-210 -32 -478 -32q-222 0 -222 146z" />
<glyph unicode="&#x2c9;" horiz-adv-x="1018" d="M-16 1848q0 70 54 70q192 0 450 26q224 24 448 50q22 2 40 2q114 0 114 -92q0 -62 -36 -84q-22 -14 -92 -26q-92 -22 -278 -60q-210 -32 -478 -32q-222 0 -222 146z" />
<glyph unicode="&#xb0;" horiz-adv-x="644" d="M50 1884q0 124 96 209t224 85q124 0 220 -80q100 -86 100 -208q0 -126 -97 -211t-223 -85t-220 82q-100 84 -100 208zM242 1886q0 -50 38 -77t90 -27q50 0 89 27t39 77t-39 77t-89 27q-52 0 -90 -27t-38 -77z" />
<glyph unicode="&#xb2;" horiz-adv-x="1538" d="M66 918q0 168 262 428q134 132 284 218q184 108 334 108q172 0 274 -148q14 -20 34 -60q2 -8 2 -38q0 -108 -56 -200q-162 -264 -256 -406q-96 -134 -280 -406q-2 -4 -56 -110l52 -20q68 18 592 182q36 10 74 10q58 0 100 -28t42 -84t-45 -103t-101 -63 q-152 -38 -458 -118l-256 -84q-184 -62 -240 -62q-166 0 -166 164q0 138 48 206l504 706q82 114 86 186l-34 56q-42 8 -80 8q-114 0 -246 -102q-26 -20 -206 -190q-110 -102 -168 -102q-40 0 -40 52z" />
<glyph unicode="&#xb3;" horiz-adv-x="1774" d="M104 118q0 52 42 84q36 28 90 28q26 0 54 -6q240 -160 426 -160q122 0 284 82q142 72 250 168q56 50 104 136q52 94 52 162q0 74 -66 135t-142 61q-88 0 -262 -44t-262 -44q-54 0 -90 14l-20 66q36 92 132 180q152 140 162 152q44 52 98 122l2 28l-48 12 q-50 -18 -283 -64t-281 -46q-76 0 -136 36q-68 44 -68 116t96 146q100 24 258 36q234 18 263 22t231 38q144 26 232 26q194 0 194 -102q0 -88 -158 -238q-178 -170 -202 -230l44 -20q230 0 382 -76q200 -98 200 -302q0 -182 -150 -354q-124 -146 -308 -242 q-282 -148 -578 -148q-252 0 -356 44q-186 78 -186 182z" />
<glyph unicode="&#xb4;" />
<glyph unicode="&#xb9;" horiz-adv-x="648" d="M116 132q0 122 70 518q6 24 72 286q46 178 42 284l-2 20q-58 78 -110 158q22 96 76 176q68 100 150 100q64 0 100 -78q28 -60 28 -132q0 -124 -36 -308q-52 -282 -56 -304q0 -4 -98 -776q-62 -118 -126 -118q-50 0 -84 64q-26 56 -26 110z" />
<glyph unicode="&#xba;" horiz-adv-x="1806" d="M120 726q0 266 248 522q154 160 358 272q234 130 426 130q244 0 396 -234q132 -202 132 -460q0 -210 -86 -417t-236 -359q-282 -284 -564 -284q-272 0 -482 284q-192 262 -192 546zM302 660q0 -188 152 -378q162 -200 346 -200q268 0 538 342q70 90 115 223t45 249 q0 184 -88 318q-100 156 -274 156q-152 0 -352 -110t-334 -268q-148 -174 -148 -332z" />
<glyph unicode="&#xbf;" horiz-adv-x="1212" d="M84 1052q0 84 106 92q238 12 712 34q104 -40 104 -106q0 -82 -218 -294q-148 -140 -294 -280q-54 -62 -54 -154q0 -38 10 -80q46 -44 112 -44q104 0 246 106q118 88 200 192q18 2 36 2q92 0 92 -56q0 -46 -34 -108q-86 -156 -257 -251t-351 -95q-166 0 -246 24 q-146 42 -146 164q0 120 72 232q16 24 212 250q168 194 168 238q0 46 -94 46q-46 0 -141 -10t-143 -10q-38 0 -65 35t-27 73zM442 1554q0 70 63 119t133 49q126 0 126 -94q0 -72 -64 -118t-138 -46q-120 0 -120 90z" />
<glyph unicode="&#xc0;" horiz-adv-x="1394" d="M114 -12q0 58 48 196q76 240 152 478q124 378 232 586q148 286 276 286q198 0 340 -700q48 0 76 -64q22 -50 22 -104q0 -90 -50 -100q52 -360 52 -398q0 -48 -18 -88q-22 -52 -64 -52q-54 0 -76 90q-2 4 -16 136q-14 140 -40 314q-268 -20 -644 -182q-40 -110 -70 -204 q-56 -170 -58 -178q-52 -128 -110 -128q-52 0 -52 112zM382 2068q0 118 88 118q26 0 60 -10q160 -156 322 -276q58 -36 162 -114q58 -52 58 -94q0 -52 -124 -52q-22 0 -48 2q-292 168 -516 386q-2 22 -2 40zM506 676q104 18 504 120q-84 402 -196 402q-118 0 -308 -522z" />
<glyph unicode="&#xc1;" horiz-adv-x="1378" d="M104 -12q0 58 48 196q66 224 146 466q296 884 516 884q198 0 340 -700q48 0 76 -64q22 -50 22 -104q0 -90 -52 -100q18 -100 34 -200q22 -134 22 -196q0 -48 -20 -90q-24 -52 -66 -52q-52 0 -76 90q-12 46 -16 120q-8 104 -10 122l-28 208q-270 -20 -646 -182l-68 -204 q-30 -88 -60 -178q-52 -128 -108 -128q-26 0 -42 44q-12 34 -12 68zM392 1700q0 32 26 76q180 130 320 258q48 52 152 146q54 42 94 42q46 0 46 -70q0 -42 -18 -108q-224 -262 -476 -436q-144 8 -144 92zM498 676q98 18 502 120q-82 402 -194 402q-118 0 -308 -522z" />
<glyph unicode="&#xc2;" horiz-adv-x="1274" d="M-4 -18q0 60 48 196q46 154 144 462l2 2q296 886 514 886q198 0 340 -700q48 0 76 -62q22 -50 22 -106q0 -90 -50 -100q16 -104 34 -208q22 -136 22 -202q0 -48 -22 -84q-26 -44 -70 -44q-50 0 -70 90q-2 4 -16 144q-14 126 -38 306q-272 -20 -646 -182l-70 -204 q-30 -90 -58 -178q-54 -130 -108 -130q-28 0 -44 46q-10 34 -10 68zM48 1654q0 22 32 40q68 40 298 232q214 180 266 200l18 16q8 4 16 4q64 -46 146 -103t424 -265q68 -42 68 -84q0 -32 -28 -63t-58 -31q-14 0 -60 26q-52 22 -156 68q-182 90 -344 236q-88 -98 -238 -218 q-186 -150 -264 -150q-34 0 -77 30t-43 62zM390 670q96 18 502 120q-84 402 -196 402q-116 0 -306 -522z" />
<glyph unicode="&#xc3;" horiz-adv-x="1274" d="M-74 1734q0 54 50 116q444 240 646 240q88 0 132 -58q10 -12 54 -106q28 -58 70 -58q102 0 388 226q10 2 20 2q78 0 78 -110q0 -46 -30 -74q-16 -16 -68 -46q-116 -72 -230 -146q-150 -88 -250 -88q-60 0 -116 81t-146 81q-106 0 -281 -91t-203 -91q-44 0 -79 39t-35 83z M-42 -18q0 54 82 322q64 204 112 340q126 360 194 506q176 378 322 378q196 0 340 -700l6 2q44 -8 70 -68q20 -48 20 -102q0 -90 -48 -100q52 -360 52 -396q0 -48 -18 -90q-24 -52 -66 -52q-52 0 -74 90q-2 2 -16 138q-16 152 -40 314q-274 -24 -644 -184q-38 -104 -70 -202 q-56 -172 -58 -180q-54 -128 -110 -128q-54 0 -54 112zM352 670q128 24 504 120q-84 402 -196 402q-118 0 -308 -522z" />
<glyph unicode="&#xc4;" horiz-adv-x="1388" d="M106 54q0 54 84 322q62 202 110 338q128 360 196 506q176 378 320 378q198 0 340 -700l6 2q44 -8 70 -68q22 -48 22 -102q0 -90 -50 -100q52 -360 52 -396q0 -48 -18 -90q-24 -54 -66 -54q-52 0 -74 92q0 2 -16 138q-16 152 -40 314q-272 -24 -644 -184 q-40 -106 -69 -199t-59 -181q-50 -130 -108 -130q-28 0 -44 46q-12 32 -12 68zM352 1738q0 74 61 177t125 131q22 10 68 10q88 0 88 -76q0 -62 -57 -161t-106 -129t-107 -30q-72 0 -72 78zM500 742q170 30 504 120q-82 400 -196 400q-118 0 -308 -520zM852 1766q0 74 61 177 t125 131q22 10 68 10q88 0 88 -76q0 -62 -57 -161t-106 -129t-107 -30q-72 0 -72 78z" />
<glyph unicode="&#xc5;" />
<glyph unicode="&#xc6;" horiz-adv-x="2176" d="M52 -22q0 58 50 196q24 80 70 242q2 2 72 220l2 2q294 884 516 884q112 0 204 -218q-12 62 -12 82q0 64 92 66q426 178 728 178q132 0 182 -28q76 -38 76 -158q0 -100 -56 -100q-6 0 -36 6q-84 20 -180 20q-282 0 -564 -140q8 -212 14 -554q162 22 402 78q378 88 398 92 q48 -8 76 -66q22 -48 22 -104q0 -100 -54 -100q-18 0 -53 5t-53 5q-314 0 -736 -162q0 -90 4 -166q266 60 532 60q160 0 261 -16t101 -128q0 -60 -54 -60q-32 0 -107 9t-113 9q-304 0 -610 -116q-34 -46 -80 -46q-124 0 -124 192q0 20 2 54v46q0 22 -36 296 q-270 -20 -646 -182l-70 -204q-28 -88 -58 -176q-52 -130 -106 -130q-28 0 -44 44q-12 34 -12 68zM446 666q98 18 502 120q-84 402 -196 402q-116 0 -306 -522z" />
<glyph unicode="&#xc7;" horiz-adv-x="1376" d="M52 526q0 400 276 730q288 348 680 348q162 0 282 -46q64 -24 64 -98t-82 -222q-84 -156 -138 -156q-12 0 -12 22q0 20 7 57t7 57q0 46 -20 82q-26 44 -68 44q-14 0 -38 -4q-224 -34 -338 -84q-158 -70 -264 -224q-154 -228 -154 -448q0 -176 104 -304q112 -138 286 -138 q110 0 248 70q80 40 214 128q102 70 124 70q40 0 40 -58q0 -100 -76 -146q-182 -114 -418 -184v-152h22q268 2 268 -152q0 -94 -106 -192q-82 -76 -192 -127t-228 -51q-128 0 -128 80q0 32 42 32q18 0 52 -7t52 -7q78 0 208 76q140 82 140 150q0 52 -90 52q-28 0 -81 -9 t-79 -9q-44 0 -44 58q0 14 3 40t3 38v150q-44 -4 -84 -4q-236 0 -362 154q-120 144 -120 384z" />
<glyph unicode="&#xc8;" horiz-adv-x="1296" d="M62 1350q0 60 88 62q428 178 724 178q132 0 184 -28q78 -38 78 -158q0 -100 -56 -100q-6 0 -36 6q-88 20 -186 20q-274 0 -558 -140q8 -212 14 -554q160 22 400 78q378 88 400 92q46 -8 74 -68q24 -48 24 -102q0 -100 -60 -100q-14 0 -30 8h-46q-346 6 -758 -160l-2 -58 q0 -66 4 -108q272 62 536 62q158 0 258 -17t100 -131q0 -58 -54 -58q-32 0 -110 9t-120 9q-294 0 -600 -112q-38 -50 -84 -50q-126 0 -126 268q0 38 3 96t3 72q0 288 -18 526q-4 72 -32 318q-14 128 -14 140zM364 2068q0 118 88 118q28 0 62 -10q160 -156 322 -276 q56 -36 162 -114q58 -52 58 -94q0 -52 -124 -52q-24 0 -48 2q-292 168 -516 386q-4 22 -4 40z" />
<glyph unicode="&#xc9;" horiz-adv-x="1296" d="M62 1350q0 60 88 62q428 178 724 178q132 0 184 -28q78 -38 78 -158q0 -100 -56 -100q-6 0 -36 6q-88 20 -186 20q-274 0 -558 -140q8 -212 14 -554q160 22 400 78q378 88 400 92q46 -8 74 -68q24 -48 24 -102q0 -100 -60 -100q-14 0 -30 8h-46q-346 6 -758 -160v-58 q0 -66 2 -108q272 62 536 62q158 0 258 -17t100 -131q0 -58 -52 -58q-34 0 -112 9t-120 9q-294 0 -600 -112q-38 -50 -84 -50q-126 0 -126 268q0 38 3 96t3 72q0 288 -18 526q-4 72 -32 318q-14 128 -14 140zM348 1700q0 32 28 76q180 130 320 258q48 52 152 146 q54 42 94 42q44 0 44 -70q0 -42 -16 -108q-224 -262 -476 -436q-146 8 -146 92z" />
<glyph unicode="&#xca;" horiz-adv-x="1194" d="M-60 1350q0 60 88 62q428 178 726 178q130 0 184 -28q78 -38 78 -158q0 -100 -58 -100q-6 0 -36 6q-88 20 -184 20q-274 0 -560 -140q8 -212 14 -554q162 22 402 78q376 88 398 92q48 -8 76 -68q22 -48 22 -102q0 -100 -60 -100q-14 0 -30 8h-44q-346 6 -760 -160v-58 q0 -66 2 -108q274 62 538 62q156 0 257 -17t101 -131q0 -58 -54 -58q-32 0 -110 9t-120 9q-294 0 -602 -112q-36 -50 -84 -50q-124 0 -124 268q0 38 2 96t2 72q0 288 -16 526q-6 72 -34 318q-14 128 -14 140zM12 1654q0 22 32 40q70 40 298 232q214 180 266 200l18 16 q10 4 16 4q64 -46 146 -103t424 -265q68 -42 68 -84q0 -32 -28 -63t-58 -31q-12 0 -62 24t-154 70q-182 90 -344 236q-88 -98 -236 -218q-188 -150 -264 -150q-34 0 -78 30t-44 62z" />
<glyph unicode="&#xcb;" horiz-adv-x="1298" d="M60 1350q0 60 88 62q430 178 726 178q132 0 184 -28q78 -38 78 -158q0 -100 -56 -100q-6 0 -38 6q-88 20 -184 20q-274 0 -560 -140q10 -212 14 -554q162 22 402 78q378 88 398 92q48 -8 76 -68q24 -48 24 -102q0 -100 -60 -100q-14 0 -32 8h-44q-346 6 -760 -160v-58 q0 -66 2 -108q274 62 538 62q158 0 258 -17t100 -131q0 -58 -54 -58q-32 0 -110 9t-120 9q-294 0 -602 -112q-36 -50 -84 -50q-124 0 -124 268q0 38 3 96t3 72q0 288 -18 526q-6 72 -32 318q-16 128 -16 140zM292 1738q0 74 60 177t124 131q24 10 68 10q90 0 90 -76 q0 -62 -58 -161t-107 -129t-107 -30q-70 0 -70 78zM792 1766q0 74 60 177t124 131q24 10 68 10q90 0 90 -76q0 -62 -58 -161t-107 -129t-107 -30q-70 0 -70 78z" />
<glyph unicode="&#xcc;" horiz-adv-x="592" d="M-56 2070q0 118 86 118q28 0 62 -10q160 -156 322 -276q56 -36 162 -114q58 -52 58 -94q0 -52 -124 -52q-24 0 -48 2q-292 168 -516 386q-2 22 -2 40zM50 1438q0 64 92 64q46 0 87 -29t41 -73q0 -10 -2 -32v-30q0 -42 4 -110q8 -86 8 -108q4 -86 14 -524q8 -320 28 -524 q-36 -54 -88 -54q-126 0 -126 266q0 38 3 94t3 72q0 434 -44 818q-20 182 -20 170z" />
<glyph unicode="&#xcd;" horiz-adv-x="542" d="M-58 1714q0 32 28 76q180 130 320 258q48 52 152 146q54 42 94 42q44 0 44 -70q0 -42 -16 -108q-224 -262 -476 -436q-146 8 -146 92zM64 1438q0 64 90 64q48 0 89 -29t41 -73q0 -10 -2 -31t-2 -31q0 -42 6 -110q6 -86 8 -108q4 -86 14 -524q8 -320 28 -524 q-38 -54 -88 -54q-126 0 -126 266q0 38 3 94t3 72q0 434 -44 818q-20 182 -20 170z" />
<glyph unicode="&#xce;" horiz-adv-x="1046" d="M-146 1568q0 22 32 40q70 40 298 232q214 180 266 200l18 16q8 4 16 4q64 -46 146 -103t424 -265q68 -42 68 -84q0 -32 -28 -63t-58 -31q-12 0 -62 24t-154 70q-182 90 -344 236q-88 -98 -238 -218q-186 -150 -264 -150q-34 0 -77 30t-43 62zM242 1438q0 64 92 64 q46 0 87 -29t41 -73q0 -10 -2 -32v-30q0 -42 4 -110q8 -86 8 -108q4 -86 14 -524q8 -320 28 -524q-36 -54 -88 -54q-126 0 -126 266q0 38 3 94t3 72q0 434 -44 818q-20 182 -20 170z" />
<glyph unicode="&#xcf;" horiz-adv-x="698" d="M-94 1716q0 74 61 177t125 131q22 10 68 10q88 0 88 -76q0 -62 -57 -161t-106 -129t-107 -30q-72 0 -72 78zM148 1438q0 64 92 64q46 0 87 -29t41 -73q0 -10 -2 -32v-30q0 -42 4 -110q8 -86 8 -108q4 -86 14 -524q8 -320 28 -524q-36 -54 -88 -54q-124 0 -124 266 q0 38 2 94t2 72q0 434 -44 818q-20 182 -20 170zM406 1744q0 74 61 177t125 131q22 10 68 10q88 0 88 -76q0 -62 -57 -161t-106 -129t-107 -30q-72 0 -72 78z" />
<glyph unicode="&#xd0;" />
<glyph unicode="&#xd1;" horiz-adv-x="1458" d="M22 1834q0 54 50 118q444 238 646 238q88 0 132 -58q10 -12 54 -106q28 -58 70 -58q102 0 388 228h20q78 0 78 -110q0 -44 -30 -74q-16 -16 -68 -44q-116 -74 -230 -146q-150 -90 -250 -90q-60 0 -116 81t-146 81q-106 0 -281 -90t-201 -90q-44 0 -80 38t-36 82zM50 104 q0 24 8 88q28 222 54 444q54 386 126 610q100 308 230 308q132 0 310 -338q58 -112 204 -462q48 -112 56 -130q42 -92 66 -122q12 -16 20 -16q24 0 24 118q0 202 -60 716q-8 66 -18 134q-12 78 -12 132q0 50 35 88t83 38q110 0 124 -152q6 -60 18 -498q8 -266 8 -384 q0 -662 -116 -662q-68 0 -212 284l-260 528q-156 284 -250 284q-134 0 -196 -444q-14 -102 -46 -556q-10 -142 -48 -178q-22 -20 -46 -20q-46 0 -76 76q-26 60 -26 114z" />
<glyph unicode="&#xd2;" horiz-adv-x="1808" d="M122 726q0 266 248 522q154 160 358 272q234 130 426 130q244 0 396 -234q132 -202 132 -460q0 -210 -86 -417t-236 -359q-282 -284 -564 -284q-272 0 -482 284q-192 262 -192 546zM304 660q0 -188 152 -378q162 -200 346 -200q268 0 538 342q70 90 115 223t45 249 q0 184 -88 318q-102 156 -274 156q-154 0 -353 -110t-333 -268q-148 -174 -148 -332zM454 2184q0 118 86 118q28 0 62 -10q160 -156 322 -276q56 -36 162 -114q58 -52 58 -94q0 -38 -78 -58q-54 -14 -108 -12h-14q-174 100 -488 406q-2 22 -2 40z" />
<glyph unicode="&#xd3;" horiz-adv-x="1808" d="M120 726q0 266 250 522q154 160 358 272q234 130 426 130q242 0 394 -234q134 -202 134 -460q0 -210 -86 -417t-236 -359q-282 -284 -564 -284q-272 0 -482 284q-194 262 -194 546zM304 660q0 -188 152 -378q162 -200 344 -200q270 0 540 342q70 90 115 223t45 249 q0 184 -88 318q-102 156 -274 156q-154 0 -353 -110t-333 -268q-148 -174 -148 -332zM610 1752q0 38 28 80q178 130 320 258q48 52 152 146q54 42 94 42q44 0 44 -70q0 -42 -16 -108q-80 -94 -224 -188q-122 -80 -244 -158q-26 0 -62 -32t-48 -32q-18 0 -31 22t-13 40z" />
<glyph unicode="&#xd4;" horiz-adv-x="1808" d="M120 726q0 266 248 522q156 160 360 272q234 130 424 130q244 0 396 -234q134 -202 134 -460q0 -210 -87 -417t-237 -359q-282 -284 -562 -284q-274 0 -484 284q-192 262 -192 546zM302 660q0 -188 154 -378q160 -200 344 -200q268 0 538 342q70 90 115 223t45 249 q0 184 -88 318q-100 156 -274 156q-152 0 -352 -110t-334 -268q-148 -174 -148 -332zM388 1724q0 22 32 40q70 40 298 232q214 180 266 200l18 16q10 4 16 4q64 -46 146 -103t424 -265q68 -42 68 -84q0 -32 -28 -63t-58 -31q-12 0 -62 24t-154 70q-182 90 -344 236 q-88 -98 -236 -218q-188 -150 -264 -150q-34 0 -78 30t-44 62z" />
<glyph unicode="&#xd5;" horiz-adv-x="1800" d="M112 726q0 266 248 522q156 160 360 272q234 130 424 130q244 0 396 -234q134 -202 134 -460q0 -210 -87 -417t-237 -359q-282 -284 -562 -284q-274 0 -484 284q-192 262 -192 546zM250 1830q0 54 48 116q446 240 646 240q88 0 134 -58q8 -12 54 -106q26 -58 70 -58 q102 0 386 226q10 2 20 2q80 0 80 -110q0 -46 -30 -74q-18 -16 -70 -46q-114 -72 -230 -146q-150 -88 -248 -88q-62 0 -118 81t-146 81q-106 0 -281 -91t-201 -91q-44 0 -79 39t-35 83zM294 660q0 -188 154 -378q160 -200 344 -200q268 0 538 342q70 90 115 223t45 249 q0 184 -88 318q-100 156 -274 156q-152 0 -352 -110t-334 -268q-148 -174 -148 -332z" />
<glyph unicode="&#xd6;" horiz-adv-x="1808" d="M120 726q0 266 248 522q156 160 360 272q234 130 426 130q242 0 394 -234q134 -202 134 -460q0 -210 -86 -417t-238 -359q-280 -284 -562 -284q-272 0 -482 284q-194 262 -194 546zM302 660q0 -188 154 -378q162 -200 344 -200q270 0 538 342q72 90 117 223t45 249 q0 184 -88 318q-102 156 -274 156q-154 0 -353 -110t-335 -268q-148 -174 -148 -332zM656 1806q0 74 60 177t124 131q24 10 68 10q90 0 90 -76q0 -62 -57 -161t-111 -131q-46 -28 -104 -28q-70 0 -70 78zM1156 1834q0 74 60 177t124 131q24 10 68 10q90 0 90 -76 q0 -62 -57 -161t-111 -131q-46 -28 -104 -28q-70 0 -70 78z" />
<glyph unicode="&#xd8;" horiz-adv-x="1786" d="M96 688q0 286 246 540q152 158 352 270q230 128 416 128q124 0 230 -56q42 82 138 236q36 50 78 50q52 0 88 -49t36 -103q0 -52 -72 -146q-32 -48 -96 -146q142 -204 142 -476q0 -212 -86 -418t-236 -358q-284 -286 -550 -286q-130 0 -254 68q-30 -46 -90 -140 q-50 -30 -86 -30q-38 0 -60 32t-22 74q0 82 82 206q-256 310 -256 604zM276 642q0 -198 184 -412q384 524 740 1106q-48 12 -98 12q-242 0 -528 -230q-298 -240 -298 -476zM628 96q72 -34 150 -34q142 0 300 112q126 92 234 230q160 206 160 476q0 192 -94 328 q-252 -370 -750 -1112z" />
<glyph unicode="&#xd9;" horiz-adv-x="1262" d="M108 322q0 102 14 262q22 264 22 598q0 38 -3 116t-3 118q0 92 20 130q30 54 116 54q98 0 98 -126q0 -18 -4 -64l-20 -364q-14 -216 -34 -362q-26 -184 -26 -282q0 -182 96 -182q80 0 284 112q52 28 276 166l-30 450q0 4 -18 214q-10 132 -10 216q0 112 76 112 q130 0 126 -206q-2 -218 -2 -296q0 -410 40 -778q20 -176 20 -164q0 -60 -72 -60q-86 0 -102 44q-4 12 -4 116q0 34 -6 92q-6 70 -8 94q-260 -152 -344 -196q-250 -130 -356 -130q-96 0 -128 118q-18 64 -18 198zM366 2068q0 118 88 118q26 0 60 -10q162 -156 324 -276 q56 -36 160 -114q58 -52 58 -94q0 -52 -124 -52q-22 0 -48 2q-292 168 -516 386q-2 22 -2 40z" />
<glyph unicode="&#xda;" horiz-adv-x="1274" d="M116 322q0 102 14 262q22 264 22 598q0 38 -3 116t-3 118q0 92 20 130q30 54 116 54q98 0 98 -126q0 -18 -4 -64l-20 -364q-14 -216 -34 -362q-26 -184 -26 -282q0 -182 96 -182q80 0 284 112q52 28 276 166l-30 450q0 4 -18 214q-10 132 -10 216q0 112 76 112 q130 0 126 -206q-2 -218 -2 -296q0 -410 40 -778q20 -176 20 -164q0 -60 -72 -60q-86 0 -102 44q-4 12 -4 116q0 34 -6 92q-6 70 -8 94q-260 -152 -344 -196q-250 -130 -356 -130q-96 0 -128 118q-18 64 -18 198zM358 1700q0 32 26 76q180 130 320 258q50 52 152 146 q54 42 96 42q44 0 44 -70q0 -42 -18 -108q-224 -262 -476 -436q-144 8 -144 92z" />
<glyph unicode="&#xdb;" horiz-adv-x="1288" d="M8 1780q0 22 32 40q70 40 298 232q214 180 266 200l18 16q10 4 16 4q64 -46 146 -103t424 -265q68 -42 68 -84q0 -32 -28 -63t-58 -31q-12 0 -62 24t-152 70q-184 90 -346 236q-88 -98 -236 -218q-188 -150 -264 -150q-34 0 -78 30t-44 62zM126 322q0 102 14 262 q22 264 22 598q0 38 -3 116t-3 118q0 92 20 130q30 54 116 54q98 0 98 -126q0 -18 -4 -64l-20 -364q-14 -216 -34 -362q-26 -184 -26 -282q0 -182 96 -182q80 0 284 112q50 28 276 166l-30 450q0 4 -18 214q-10 132 -10 216q0 112 74 112q132 0 128 -206q-4 -218 -4 -296 q0 -410 42 -778q20 -176 20 -164q0 -60 -72 -60q-86 0 -102 44q-6 12 -6 116q0 34 -4 92q-6 70 -8 94q-262 -152 -344 -196q-252 -130 -356 -130q-96 0 -128 118q-18 64 -18 198z" />
<glyph unicode="&#xdc;" horiz-adv-x="1270" d="M116 322q0 102 14 262q22 264 22 598q0 38 -3 116t-3 118q0 92 22 130q28 54 114 54q98 0 98 -126q0 -18 -2 -64q-12 -182 -22 -364q-12 -216 -34 -362q-26 -184 -26 -282q0 -182 96 -182q82 0 284 112q52 28 278 166l-30 450q-2 4 -18 214q-12 132 -12 216q0 112 76 112 q130 0 128 -206q-4 -218 -4 -296q0 -410 42 -778q20 -176 20 -164q0 -60 -74 -60q-84 0 -102 44q-4 12 -4 116q0 34 -6 92q-6 70 -6 94q-262 -152 -346 -196q-250 -130 -354 -130q-98 0 -130 118q-18 64 -18 198zM302 1738q0 74 60 177t126 131q22 10 68 10q88 0 88 -76 q0 -62 -57 -161t-107 -129t-106 -30q-72 0 -72 78zM802 1766q0 74 60 177t126 131q22 10 68 10q88 0 88 -76q0 -62 -57 -161t-107 -129t-106 -30q-72 0 -72 78z" />
<glyph unicode="&#xdd;" horiz-adv-x="1402" d="M102 1500q0 76 92 76q62 0 122 -66q52 -58 68 -124q6 -54 16 -162q58 -504 308 -612q108 306 326 914q54 140 144 140q50 0 78 -54q24 -46 24 -100q0 -60 -36 -140q-102 -226 -300 -680q-100 -242 -182 -492q-20 -84 -78 -244q-22 -50 -68 -50q-44 0 -84 37t-40 81 q0 22 32 90q12 20 110 298q-300 242 -446 772q-12 62 -46 184q-40 110 -40 132zM390 1700q0 32 26 76q180 130 322 258q48 52 150 146q54 42 96 42q44 0 44 -70q0 -42 -18 -108q-222 -262 -476 -436q-144 8 -144 92z" />
<glyph unicode="&#xdf;" horiz-adv-x="1238" d="M76 -66q0 48 58 48q32 0 78 -16v4q0 30 -12 104q-16 94 -18 108q-28 244 -26 448v100q2 120 -18 338q-22 232 -24 338v12q0 10 6 22h2q20 32 76 30q264 90 456 90q198 0 346 -92q172 -108 172 -294q0 -308 -362 -522q116 -32 186 -110q72 -84 72 -200q0 -188 -154 -312 q-144 -118 -336 -118q-56 0 -76 10q-32 16 -32 64q0 54 60 78q114 2 218 52q128 64 128 166q0 108 -162 156q-110 32 -256 32q-52 0 -108 -4q2 -60 2 -344q0 -34 3 -106t3 -108q0 -128 -94 -128q-62 0 -122 46q-66 50 -66 108zM332 774q0 -64 4 -120q210 28 402 160 q266 184 266 328q0 84 -88 124q-66 30 -158 30q-156 0 -418 -60q2 -44 2 -94q0 -60 -5 -183t-5 -185z" />
<glyph unicode="&#xe0;" horiz-adv-x="1394" d="M114 -12q0 58 48 196q76 240 152 478q124 378 232 586q148 286 276 286q198 0 340 -700q48 0 76 -64q22 -50 22 -104q0 -90 -50 -100q52 -360 52 -398q0 -48 -18 -88q-22 -52 -64 -52q-54 0 -76 90q-2 4 -16 136q-14 140 -40 314q-268 -20 -644 -182q-40 -110 -70 -204 q-56 -170 -58 -178q-52 -128 -110 -128q-52 0 -52 112zM382 2068q0 118 88 118q26 0 60 -10q160 -156 322 -276q58 -36 162 -114q58 -52 58 -94q0 -52 -124 -52q-22 0 -48 2q-292 168 -516 386q-2 22 -2 40zM506 676q104 18 504 120q-84 402 -196 402q-118 0 -308 -522z" />
<glyph unicode="&#xe1;" horiz-adv-x="1378" d="M104 -12q0 58 48 196q66 224 146 466q296 884 516 884q198 0 340 -700q48 0 76 -64q22 -50 22 -104q0 -90 -52 -100q18 -100 34 -200q22 -134 22 -196q0 -48 -20 -90q-24 -52 -66 -52q-52 0 -76 90q-12 46 -16 120q-8 104 -10 122l-28 208q-270 -20 -646 -182l-68 -204 q-30 -88 -60 -178q-52 -128 -108 -128q-26 0 -42 44q-12 34 -12 68zM392 1700q0 32 26 76q180 130 320 258q48 52 152 146q54 42 94 42q46 0 46 -70q0 -42 -18 -108q-224 -262 -476 -436q-144 8 -144 92zM498 676q98 18 502 120q-82 402 -194 402q-118 0 -308 -522z" />
<glyph unicode="&#xe2;" horiz-adv-x="1274" d="M-4 -18q0 60 48 196q46 154 144 462l2 2q296 886 514 886q198 0 340 -700q48 0 76 -62q22 -50 22 -106q0 -90 -50 -100q16 -104 34 -208q22 -136 22 -202q0 -48 -22 -84q-26 -44 -70 -44q-50 0 -70 90q-2 4 -16 144q-14 126 -38 306q-272 -20 -646 -182l-70 -204 q-30 -90 -58 -178q-54 -130 -108 -130q-28 0 -44 46q-10 34 -10 68zM48 1654q0 22 32 40q68 40 298 232q214 180 266 200l18 16q8 4 16 4q64 -46 146 -103t424 -265q68 -42 68 -84q0 -32 -28 -63t-58 -31q-14 0 -60 26q-52 22 -156 68q-182 90 -344 236q-88 -98 -238 -218 q-186 -150 -264 -150q-34 0 -77 30t-43 62zM390 670q96 18 502 120q-84 402 -196 402q-116 0 -306 -522z" />
<glyph unicode="&#xe3;" horiz-adv-x="1274" d="M-74 1734q0 54 50 116q444 240 646 240q88 0 132 -58q10 -12 54 -106q28 -58 70 -58q102 0 388 226q10 2 20 2q78 0 78 -110q0 -46 -30 -74q-16 -16 -68 -46q-116 -72 -230 -146q-150 -88 -250 -88q-60 0 -116 81t-146 81q-106 0 -281 -91t-203 -91q-44 0 -79 39t-35 83z M-42 -18q0 54 82 322q64 204 112 340q126 360 194 506q176 378 322 378q196 0 340 -700l6 2q44 -8 70 -68q20 -48 20 -102q0 -90 -48 -100q52 -360 52 -396q0 -48 -18 -90q-24 -52 -66 -52q-52 0 -74 90q-2 2 -16 138q-16 152 -40 314q-274 -24 -644 -184q-38 -104 -70 -202 q-56 -172 -58 -180q-54 -128 -110 -128q-54 0 -54 112zM352 670q128 24 504 120q-84 402 -196 402q-118 0 -308 -522z" />
<glyph unicode="&#xe4;" horiz-adv-x="1384" d="M102 54q0 54 82 322q64 202 110 338q128 360 196 506q176 378 322 378q196 0 338 -700l6 2q46 -8 72 -68q20 -48 20 -102q0 -90 -50 -100q54 -360 54 -396q0 -48 -18 -90q-24 -54 -66 -54q-54 0 -76 92q0 2 -14 138q-18 152 -42 314q-272 -24 -644 -184 q-38 -106 -68 -199t-58 -181q-52 -130 -108 -130q-30 0 -44 46q-12 32 -12 68zM386 1824q0 74 60 177t124 131q24 10 68 10q90 0 90 -76q0 -62 -57 -161t-111 -131q-46 -28 -104 -28q-70 0 -70 78zM494 742q170 30 504 120q-82 400 -194 400q-120 0 -310 -520zM894 1806 q0 74 60 177t124 131q24 10 68 10q90 0 90 -76q0 -62 -57 -161t-111 -131q-46 -28 -104 -28q-70 0 -70 78z" />
<glyph unicode="&#xe5;" horiz-adv-x="1394" d="M110 -50q0 58 48 194q64 224 146 466q296 884 514 884q196 0 340 -700l6 2q44 -8 72 -68q20 -48 20 -102q0 -90 -50 -100q16 -100 32 -202q22 -136 22 -194q0 -50 -18 -90q-24 -52 -68 -52q-52 0 -74 90q-2 4 -16 134t-38 316q-272 -20 -646 -182l-70 -204 q-30 -88 -58 -176q-54 -130 -108 -130q-28 0 -44 46q-10 34 -10 68zM494 1884q0 124 96 209t224 85q124 0 220 -80q100 -86 100 -208q0 -126 -97 -211t-223 -85t-220 82q-100 84 -100 208zM504 636q120 24 502 120q-84 402 -196 402q-116 0 -306 -522zM686 1886 q0 -50 38 -77t90 -27q50 0 89 27t39 77t-39 77t-89 27q-52 0 -90 -27t-38 -77z" />
<glyph unicode="&#xe6;" horiz-adv-x="2176" d="M52 -22q0 58 50 196q24 80 70 242q2 2 72 220l2 2q294 884 516 884q112 0 204 -218q-12 62 -12 82q0 64 92 66q426 178 728 178q132 0 182 -28q76 -38 76 -158q0 -100 -56 -100q-6 0 -36 6q-84 20 -180 20q-282 0 -564 -140q8 -212 14 -554q162 22 402 78q378 88 398 92 q48 -8 76 -66q22 -48 22 -104q0 -100 -54 -100q-18 0 -53 5t-53 5q-314 0 -736 -162q0 -90 4 -166q266 60 532 60q160 0 261 -16t101 -128q0 -60 -54 -60q-32 0 -107 9t-113 9q-304 0 -610 -116q-34 -46 -80 -46q-124 0 -124 192q0 20 2 54v46q0 22 -36 296 q-270 -20 -646 -182l-70 -204q-28 -88 -58 -176q-52 -130 -106 -130q-28 0 -44 44q-12 34 -12 68zM446 666q98 18 502 120q-84 402 -196 402q-116 0 -306 -522z" />
<glyph unicode="&#xe7;" horiz-adv-x="1376" d="M52 526q0 400 276 730q288 348 682 348q158 0 280 -46q64 -24 64 -98t-82 -222q-84 -156 -138 -156q-12 0 -12 22q0 20 7 57t7 57q0 46 -20 82q-26 44 -68 44q-14 0 -38 -4q-224 -34 -338 -84q-158 -70 -264 -224q-154 -228 -154 -448q0 -176 104 -304q112 -138 286 -138 q110 0 248 70q80 40 214 128q102 70 124 70q40 0 40 -58q0 -100 -76 -146q-182 -114 -418 -184v-152h22q268 2 268 -152q0 -94 -106 -192q-82 -76 -192 -127t-228 -51q-128 0 -128 80q0 32 42 32q18 0 52 -7t52 -7q78 0 208 76q140 82 140 150q0 52 -90 52q-28 0 -81 -9 t-79 -9q-44 0 -44 58q0 14 3 40t3 38v150q-44 -4 -84 -4q-236 0 -362 154q-120 144 -120 384z" />
<glyph unicode="&#xe8;" horiz-adv-x="1296" d="M62 1350q0 60 88 62q428 178 724 178q132 0 184 -28q78 -38 78 -158q0 -100 -56 -100q-6 0 -36 6q-88 20 -186 20q-274 0 -558 -140q8 -212 14 -554q160 22 400 78q378 88 400 92q46 -8 74 -68q24 -48 24 -102q0 -100 -60 -100q-14 0 -30 8h-46q-346 6 -758 -160l-2 -58 q0 -66 4 -108q272 62 536 62q158 0 258 -17t100 -131q0 -58 -54 -58q-32 0 -110 9t-120 9q-294 0 -600 -112q-38 -50 -84 -50q-126 0 -126 268q0 38 3 96t3 72q0 288 -18 526q-4 72 -32 318q-14 128 -14 140zM364 2068q0 118 88 118q28 0 62 -10q160 -156 322 -276 q56 -36 162 -114q58 -52 58 -94q0 -52 -124 -52q-24 0 -48 2q-292 168 -516 386q-4 22 -4 40z" />
<glyph unicode="&#xe9;" horiz-adv-x="1296" d="M62 1350q0 60 88 62q428 178 724 178q132 0 184 -28q78 -38 78 -158q0 -100 -56 -100q-6 0 -36 6q-88 20 -186 20q-274 0 -558 -140q8 -212 14 -554q160 22 400 78q378 88 400 92q46 -8 74 -68q24 -48 24 -102q0 -100 -60 -100q-14 0 -30 8h-46q-346 6 -758 -160v-58 q0 -66 2 -108q272 62 536 62q158 0 258 -17t100 -131q0 -58 -52 -58q-34 0 -112 9t-120 9q-294 0 -600 -112q-38 -50 -84 -50q-126 0 -126 268q0 38 3 96t3 72q0 288 -18 526q-4 72 -32 318q-14 128 -14 140zM348 1700q0 32 28 76q180 130 320 258q48 52 152 146 q54 42 94 42q44 0 44 -70q0 -42 -16 -108q-224 -262 -476 -436q-146 8 -146 92z" />
<glyph unicode="&#xea;" horiz-adv-x="1194" d="M-60 1350q0 60 88 62q428 178 726 178q130 0 184 -28q78 -38 78 -158q0 -100 -58 -100q-6 0 -36 6q-88 20 -184 20q-274 0 -560 -140q8 -212 14 -554q162 22 402 78q376 88 398 92q48 -8 76 -68q22 -48 22 -102q0 -100 -60 -100q-14 0 -30 8h-44q-346 6 -760 -160v-58 q0 -66 2 -108q274 62 538 62q156 0 257 -17t101 -131q0 -58 -54 -58q-32 0 -110 9t-120 9q-294 0 -602 -112q-36 -50 -84 -50q-124 0 -124 268q0 38 2 96t2 72q0 288 -16 526q-6 72 -34 318q-14 128 -14 140zM12 1654q0 22 32 40q70 40 298 232q214 180 266 200l18 16 q10 4 16 4q64 -46 146 -103t424 -265q68 -42 68 -84q0 -32 -28 -63t-58 -31q-12 0 -62 24t-154 70q-182 90 -344 236q-88 -98 -236 -218q-188 -150 -264 -150q-34 0 -78 30t-44 62z" />
<glyph unicode="&#xeb;" horiz-adv-x="1298" d="M60 1350q0 60 88 62q430 178 726 178q132 0 184 -28q78 -38 78 -158q0 -100 -56 -100q-6 0 -38 6q-88 20 -184 20q-274 0 -560 -140q10 -212 14 -554q162 22 402 78q378 88 398 92q48 -8 76 -68q24 -48 24 -102q0 -100 -60 -100q-14 0 -32 8h-44q-346 6 -760 -160v-58 q0 -66 2 -108q274 62 538 62q158 0 258 -17t100 -131q0 -58 -54 -58q-32 0 -110 9t-120 9q-294 0 -602 -112q-36 -50 -84 -50q-124 0 -124 268q0 38 3 96t3 72q0 288 -18 526q-6 72 -32 318q-16 128 -16 140zM292 1738q0 74 60 177t124 131q24 10 68 10q90 0 90 -76 q0 -62 -58 -161t-107 -129t-107 -30q-70 0 -70 78zM792 1766q0 74 60 177t124 131q24 10 68 10q90 0 90 -76q0 -62 -58 -161t-107 -129t-107 -30q-70 0 -70 78z" />
<glyph unicode="&#xec;" horiz-adv-x="588" d="M-60 2064q0 118 88 118q26 0 60 -10q160 -156 322 -276q58 -36 162 -114q58 -52 58 -94q0 -52 -124 -52q-22 0 -48 2q-292 168 -516 386q-2 22 -2 40zM62 1438q0 64 92 64q46 0 87 -29t41 -73q0 -10 -2 -32v-30q0 -42 4 -110q8 -86 8 -108q4 -86 16 -524q6 -320 26 -524 q-36 -54 -88 -54q-124 0 -124 266q0 38 2 94t2 72q0 434 -44 818q-20 182 -20 170z" />
<glyph unicode="&#xed;" horiz-adv-x="540" d="M-60 1706q0 32 26 76q180 130 322 258q48 52 150 146q54 42 96 42q44 0 44 -70q0 -42 -18 -108q-222 -262 -476 -436q-144 8 -144 92zM70 1438q0 64 92 64q48 0 88 -29t40 -73v-32q-2 -20 -2 -30q0 -42 6 -110q6 -86 8 -108q4 -86 14 -524q8 -320 26 -524 q-36 -54 -86 -54q-126 0 -126 266q0 38 3 94t3 72q0 434 -44 818q-22 182 -22 170z" />
<glyph unicode="&#xee;" horiz-adv-x="1040" d="M-152 1600q0 22 32 40q68 40 298 232q214 180 266 200l18 16q8 4 16 4q64 -46 146 -103t424 -265q68 -42 68 -84q0 -32 -28 -63t-58 -31q-14 0 -60 26q-52 22 -156 68q-182 90 -344 236q-88 -98 -238 -218q-186 -150 -264 -150q-34 0 -77 30t-43 62zM264 1438q0 64 92 64 q46 0 87 -29t41 -73q0 -10 -2 -32v-30q0 -42 4 -110q8 -86 8 -108q4 -86 14 -524q8 -320 28 -524q-36 -54 -88 -54q-126 0 -126 266q0 38 3 94t3 72q0 434 -44 818q-20 182 -20 170z" />
<glyph unicode="&#xef;" horiz-adv-x="712" d="M-78 1716q0 74 60 177t124 131q24 10 68 10q90 0 90 -76q0 -62 -58 -161t-107 -129t-107 -30q-70 0 -70 78zM94 1438q0 64 92 64q48 0 88 -29t40 -73v-32q-2 -20 -2 -30q0 -42 6 -110q6 -86 8 -108q4 -86 14 -524q8 -320 26 -524q-36 -54 -86 -54q-126 0 -126 266 q0 38 3 94t3 72q0 434 -44 818q-22 182 -22 170zM422 1744q0 74 60 177t124 131q24 10 68 10q90 0 90 -76q0 -62 -58 -161t-107 -129t-107 -30q-70 0 -70 78z" />
<glyph unicode="&#xf1;" horiz-adv-x="1516" d="M42 1860q0 54 48 116q446 240 648 240q86 0 132 -58q10 -12 54 -106q26 -58 70 -58q102 0 386 226q12 2 20 2q80 0 80 -110q0 -46 -30 -74q-16 -16 -70 -46q-114 -72 -230 -146q-148 -88 -248 -88q-62 0 -117 81t-145 81q-106 0 -282 -91t-202 -91q-44 0 -79 39t-35 83z M108 104q0 24 8 88q28 222 54 444q54 386 128 610q98 308 228 308q134 0 310 -338q58 -112 206 -462q46 -112 54 -130q42 -92 66 -122q12 -16 20 -16q24 0 24 118q0 202 -60 716q-8 66 -18 134q-12 78 -12 132q0 50 35 88t85 38q108 0 122 -152q6 -60 18 -498q8 -266 8 -384 q0 -662 -116 -662q-68 0 -212 284l-260 528q-156 284 -250 284q-134 0 -196 -444q-14 -102 -46 -556q-10 -142 -48 -178q-22 -20 -46 -20q-46 0 -76 76q-26 60 -26 114z" />
<glyph unicode="&#xf2;" horiz-adv-x="1808" d="M120 726q0 266 248 522q156 160 360 272q234 130 426 130q242 0 394 -234q134 -202 134 -460q0 -210 -87 -417t-237 -359q-280 -284 -562 -284q-274 0 -482 284q-194 262 -194 546zM302 660q0 -188 154 -378q162 -200 344 -200q270 0 538 342q72 90 116 223t44 249 q0 184 -86 318q-102 156 -276 156q-152 0 -351 -110t-335 -268q-148 -174 -148 -332zM534 2180q0 118 88 118q26 0 60 -10q162 -156 324 -276q56 -36 160 -114q58 -52 58 -94q0 -52 -124 -52q-22 0 -48 2q-292 168 -516 386q-2 22 -2 40z" />
<glyph unicode="&#xf3;" horiz-adv-x="1810" d="M122 726q0 266 248 522q156 160 360 272q234 130 424 130q244 0 396 -234q134 -202 134 -460q0 -210 -87 -417t-237 -359q-280 -284 -562 -284q-274 0 -482 284q-194 262 -194 546zM304 660q0 -188 154 -378q160 -200 344 -200q268 0 538 342q70 90 115 223t45 249 q0 184 -88 318q-100 156 -274 156q-152 0 -351 -110t-335 -268q-148 -174 -148 -332zM644 1748q0 32 26 76q180 130 320 258q48 52 152 146q54 42 96 42q44 0 44 -70q0 -42 -18 -108q-224 -262 -476 -436q-144 8 -144 92z" />
<glyph unicode="&#xf4;" horiz-adv-x="1806" d="M118 726q0 266 248 522q156 160 360 272q234 130 426 130q242 0 394 -234q134 -202 134 -460q0 -210 -86 -417t-238 -359q-280 -284 -562 -284q-274 0 -482 284q-194 262 -194 546zM300 660q0 -188 154 -378q162 -200 344 -200q270 0 538 342q72 90 116 223t44 249 q0 184 -86 318q-102 156 -276 156q-152 0 -351 -110t-335 -268q-148 -174 -148 -332zM386 1782q0 22 32 40q70 40 300 232q212 180 264 200l18 16q10 4 18 4q64 -46 145 -103t423 -265q68 -42 68 -84q0 -32 -27 -63t-59 -31q-12 0 -62 24t-152 70q-182 90 -346 236 q-88 -98 -236 -218q-186 -150 -264 -150q-34 0 -78 30t-44 62z" />
<glyph unicode="&#xf5;" horiz-adv-x="1808" d="M120 726q0 266 248 522q156 160 360 272q234 130 426 130q242 0 394 -234q134 -202 134 -460q0 -210 -87 -417t-237 -359q-280 -284 -562 -284q-274 0 -482 284q-194 262 -194 546zM216 1852q0 54 48 116q446 240 648 240q88 0 132 -58q10 -12 54 -106q26 -58 70 -58 q102 0 386 226q12 2 20 2q80 0 80 -110q0 -46 -30 -74q-16 -16 -70 -46q-114 -72 -230 -146q-148 -88 -248 -88q-62 0 -117 81t-145 81q-106 0 -282 -91t-202 -91q-44 0 -79 39t-35 83zM302 660q0 -188 154 -378q162 -200 344 -200q270 0 538 342q72 90 116 223t44 249 q0 184 -86 318q-102 156 -276 156q-152 0 -351 -110t-335 -268q-148 -174 -148 -332z" />
<glyph unicode="&#xf6;" horiz-adv-x="1810" d="M122 726q0 266 248 522q156 160 358 272q236 130 426 130q244 0 396 -234q132 -202 132 -460q0 -210 -86 -417t-236 -359q-282 -284 -562 -284q-274 0 -484 284q-192 262 -192 546zM304 660q0 -188 152 -378q162 -200 346 -200q268 0 538 342q70 90 115 223t45 249 q0 184 -88 318q-100 156 -274 156q-152 0 -352 -110t-334 -268q-148 -174 -148 -332zM598 1794q0 74 61 177t125 131q24 10 68 10q88 0 88 -76q0 -62 -57 -161t-106 -129t-107 -30q-72 0 -72 78zM1098 1822q0 74 61 177t125 131q24 10 68 10q88 0 88 -76q0 -62 -57 -161 t-106 -129t-107 -30q-72 0 -72 78z" />
<glyph unicode="&#xf9;" horiz-adv-x="1262" d="M108 322q0 102 14 262q22 264 22 598q0 38 -3 116t-3 118q0 92 20 130q30 54 116 54q98 0 98 -126q0 -18 -4 -64l-20 -364q-14 -216 -34 -362q-26 -184 -26 -282q0 -182 96 -182q80 0 284 112q52 28 276 166l-30 450q0 4 -18 214q-10 132 -10 216q0 112 76 112 q130 0 126 -206q-2 -218 -2 -296q0 -410 40 -778q20 -176 20 -164q0 -60 -72 -60q-86 0 -102 44q-4 12 -4 116q0 34 -6 92q-6 70 -8 94q-260 -152 -344 -196q-250 -130 -356 -130q-96 0 -128 118q-18 64 -18 198zM366 2068q0 118 88 118q26 0 60 -10q162 -156 324 -276 q56 -36 160 -114q58 -52 58 -94q0 -52 -124 -52q-22 0 -48 2q-292 168 -516 386q-2 22 -2 40z" />
<glyph unicode="&#xfa;" horiz-adv-x="1274" d="M116 322q0 102 14 262q22 264 22 598q0 38 -3 116t-3 118q0 92 20 130q30 54 116 54q98 0 98 -126q0 -18 -4 -64l-20 -364q-14 -216 -34 -362q-26 -184 -26 -282q0 -182 96 -182q80 0 284 112q52 28 276 166l-30 450q0 4 -18 214q-10 132 -10 216q0 112 76 112 q130 0 126 -206q-2 -218 -2 -296q0 -410 40 -778q20 -176 20 -164q0 -60 -72 -60q-86 0 -102 44q-4 12 -4 116q0 34 -6 92q-6 70 -8 94q-260 -152 -344 -196q-250 -130 -356 -130q-96 0 -128 118q-18 64 -18 198zM358 1700q0 32 26 76q180 130 320 258q50 52 152 146 q54 42 96 42q44 0 44 -70q0 -42 -18 -108q-224 -262 -476 -436q-144 8 -144 92z" />
<glyph unicode="&#xfb;" horiz-adv-x="1344" d="M28 1712q0 22 32 40q68 40 298 232q212 180 266 200l18 16q8 4 16 4q64 -46 146 -103t424 -265q66 -42 66 -84q0 -32 -27 -63t-59 -31q-12 0 -58 26q-54 22 -156 68q-182 90 -344 236q-88 -98 -238 -218q-186 -150 -264 -150q-34 0 -77 30t-43 62zM184 322q0 102 14 262 q22 264 22 598q0 38 -3 116t-3 118q0 92 20 130q30 54 116 54q98 0 98 -126q0 -18 -2 -64q-12 -182 -22 -364q-14 -216 -34 -362q-26 -184 -26 -282q0 -182 96 -182q82 0 284 112q52 28 278 166l-30 450q-2 4 -18 214q-12 132 -12 216q0 112 76 112q130 0 128 -206 q-4 -218 -4 -296q0 -410 42 -778q20 -176 20 -164q0 -60 -74 -60q-84 0 -102 44q-4 12 -4 116q0 34 -6 92q-6 70 -6 94q-262 -152 -346 -196q-250 -130 -354 -130q-98 0 -130 118q-18 64 -18 198z" />
<glyph unicode="&#xfc;" horiz-adv-x="1270" d="M116 322q0 102 14 262q22 264 22 598q0 38 -3 116t-3 118q0 92 22 130q28 54 114 54q98 0 98 -126q0 -18 -2 -64q-12 -182 -22 -364q-12 -216 -34 -362q-26 -184 -26 -282q0 -182 96 -182q82 0 284 112q52 28 278 166l-30 450q-2 4 -18 214q-12 132 -12 216q0 112 76 112 q130 0 128 -206q-4 -218 -4 -296q0 -410 42 -778q20 -176 20 -164q0 -60 -74 -60q-84 0 -102 44q-4 12 -4 116q0 34 -6 92q-6 70 -6 94q-262 -152 -346 -196q-250 -130 -354 -130q-98 0 -130 118q-18 64 -18 198zM302 1738q0 74 60 177t126 131q22 10 68 10q88 0 88 -76 q0 -62 -57 -161t-107 -129t-106 -30q-72 0 -72 78zM802 1766q0 74 60 177t126 131q22 10 68 10q88 0 88 -76q0 -62 -57 -161t-107 -129t-106 -30q-72 0 -72 78z" />
<glyph unicode="&#xfd;" horiz-adv-x="1402" d="M102 1500q0 76 92 76q62 0 122 -66q52 -58 68 -124q6 -54 16 -162q58 -504 308 -612q108 306 326 914q54 140 144 140q50 0 78 -54q24 -46 24 -100q0 -60 -36 -140q-102 -226 -300 -680q-100 -242 -182 -492q-20 -84 -78 -244q-22 -50 -68 -50q-44 0 -84 37t-40 81 q0 22 32 90q12 20 110 298q-300 242 -446 772q-12 62 -46 184q-40 110 -40 132zM390 1700q0 32 26 76q180 130 322 258q48 52 150 146q54 42 96 42q44 0 44 -70q0 -42 -18 -108q-222 -262 -476 -436q-144 8 -144 92z" />
<glyph unicode="&#xff;" horiz-adv-x="1406" d="M106 1500q0 76 92 76q62 0 120 -66q52 -58 70 -124q4 -54 14 -162q60 -504 310 -612q106 306 326 914q52 140 144 140q48 0 78 -54q24 -46 24 -100q0 -60 -36 -140q-104 -226 -300 -680q-100 -242 -182 -492q-22 -84 -78 -244q-24 -50 -68 -50t-85 37t-41 81q0 22 34 90 q10 20 110 298q-300 242 -446 772q-12 62 -46 184q-40 110 -40 132zM336 1738q0 74 61 177t125 131q24 10 68 10q88 0 88 -76q0 -62 -57 -161t-106 -129t-107 -30q-72 0 -72 78zM836 1766q0 74 61 177t125 131q24 10 68 10q88 0 88 -76q0 -62 -57 -161t-106 -129t-107 -30 q-72 0 -72 78z" />
<glyph unicode="&#x152;" horiz-adv-x="2622" d="M68 748q0 270 248 522q154 158 360 272q236 130 426 130q200 0 360 -186q10 -14 16 -22q38 4 94 28q86 38 92 40q324 112 556 112q132 0 184 -26q76 -40 76 -160q0 -100 -56 -100q-6 0 -36 6q-88 20 -186 20q-274 0 -558 -140q8 -212 14 -554q160 22 400 78 q378 88 400 92q46 -8 74 -66q24 -48 24 -104q0 -100 -54 -100q-18 0 -55 5t-55 5q-322 0 -732 -162q0 -86 4 -166q266 62 528 62q160 0 266 -18q100 -18 100 -130q0 -58 -52 -58q-34 0 -112 9t-120 9q-298 0 -600 -114q-36 -48 -82 -48q-124 0 -124 180q0 42 3 128t3 128 q-124 -206 -306 -342q-208 -160 -420 -160q-276 0 -486 284q-194 260 -194 546zM250 682q0 -190 154 -380q162 -198 348 -198q274 0 534 342q160 212 160 470q0 188 -86 320q-98 154 -276 154q-246 0 -532 -230q-302 -238 -302 -478z" />
<glyph unicode="&#x153;" horiz-adv-x="2622" d="M68 748q0 270 248 522q154 158 360 272q236 130 426 130q200 0 360 -186q10 -14 16 -22q38 4 94 28q86 38 92 40q324 112 556 112q132 0 184 -26q76 -40 76 -160q0 -100 -56 -100q-6 0 -36 6q-88 20 -186 20q-274 0 -558 -140q8 -212 14 -554q160 22 400 78 q378 88 400 92q46 -8 74 -66q24 -48 24 -104q0 -100 -54 -100q-18 0 -55 5t-55 5q-322 0 -732 -162q0 -86 4 -166q266 62 528 62q160 0 266 -18q100 -18 100 -130q0 -58 -52 -58q-34 0 -112 9t-120 9q-298 0 -600 -114q-36 -48 -82 -48q-124 0 -124 180q0 42 3 128t3 128 q-124 -206 -306 -342q-208 -160 -420 -160q-276 0 -486 284q-194 260 -194 546zM250 682q0 -190 154 -380q162 -198 348 -198q274 0 534 342q160 212 160 470q0 188 -86 320q-98 154 -276 154q-246 0 -532 -230q-302 -238 -302 -478z" />
<glyph unicode="&#x178;" horiz-adv-x="1406" d="M106 1500q0 76 92 76q62 0 120 -66q52 -58 70 -124q4 -54 14 -162q60 -504 310 -612q106 306 326 914q52 140 144 140q48 0 78 -54q24 -46 24 -100q0 -60 -36 -140q-104 -226 -300 -680q-100 -242 -182 -492q-22 -84 -78 -244q-24 -50 -68 -50t-85 37t-41 81q0 22 34 90 q10 20 110 298q-300 242 -446 772q-12 62 -46 184q-40 110 -40 132zM336 1738q0 74 61 177t125 131q24 10 68 10q88 0 88 -76q0 -62 -57 -161t-106 -129t-107 -30q-72 0 -72 78zM836 1766q0 74 61 177t125 131q24 10 68 10q88 0 88 -76q0 -62 -57 -161t-106 -129t-107 -30 q-72 0 -72 78z" />
<glyph unicode="&#x2c6;" horiz-adv-x="1134" d="M-54 1654q0 22 32 40q70 40 300 232q212 180 264 200q20 20 32 20q10 0 34 -22q90 -76 538 -346q68 -40 68 -84q0 -32 -27 -63t-59 -31q-12 0 -62 24t-152 70q-184 92 -346 236l-564 -350q-58 38 -58 74z" />
<glyph unicode="&#x2dc;" d="M-734 242q0 54 50 118q444 238 646 238q88 0 132 -58q10 -12 54 -106q28 -58 70 -58q98 0 386 226q12 2 22 2q78 0 78 -110q0 -44 -30 -74q-16 -16 -70 -44q-116 -74 -230 -146q-148 -90 -248 -90q-60 0 -116 81t-146 81q-106 0 -281 -90t-203 -90q-44 0 -79 38t-35 82z " />
<glyph unicode="&#x2000;" horiz-adv-x="1150" />
<glyph unicode="&#x2001;" horiz-adv-x="2302" />
<glyph unicode="&#x2002;" horiz-adv-x="1150" />
<glyph unicode="&#x2003;" horiz-adv-x="2302" />
<glyph unicode="&#x2004;" horiz-adv-x="766" />
<glyph unicode="&#x2005;" horiz-adv-x="574" />
<glyph unicode="&#x2006;" horiz-adv-x="382" />
<glyph unicode="&#x2007;" horiz-adv-x="382" />
<glyph unicode="&#x2008;" horiz-adv-x="286" />
<glyph unicode="&#x2009;" horiz-adv-x="460" />
<glyph unicode="&#x200a;" horiz-adv-x="126" />
<glyph unicode="&#x2010;" horiz-adv-x="1386" d="M136 808q0 70 56 70q192 0 450 26q224 24 448 50q22 2 40 2q114 0 114 -92q0 -62 -36 -84q-22 -14 -92 -26q-92 -22 -280 -60q-208 -32 -476 -32q-224 0 -224 146z" />
<glyph unicode="&#x2011;" horiz-adv-x="1386" d="M136 808q0 70 56 70q192 0 450 26q224 24 448 50q22 2 40 2q114 0 114 -92q0 -62 -36 -84q-22 -14 -92 -26q-92 -22 -280 -60q-208 -32 -476 -32q-224 0 -224 146z" />
<glyph unicode="&#x2012;" horiz-adv-x="1386" d="M136 808q0 70 56 70q192 0 450 26q224 24 448 50q22 2 40 2q114 0 114 -92q0 -62 -36 -84q-22 -14 -92 -26q-92 -22 -280 -60q-208 -32 -476 -32q-224 0 -224 146z" />
<glyph unicode="&#x2013;" horiz-adv-x="1024" d="M204 512v204h616v-204h-616z" />
<glyph unicode="&#x2014;" horiz-adv-x="2048" d="M204 512v204h1640v-204h-1640z" />
<glyph unicode="&#x2018;" horiz-adv-x="624" d="M140 1568v38q-6 154 80 154q32 0 72 -22q182 -260 182 -608q0 -166 -68 -166q-22 0 -56 19t-50 37q-4 6 -34 66q-118 250 -126 482z" />
<glyph unicode="&#x2019;" horiz-adv-x="618" d="M134 1120q0 364 180 618q36 22 68 22q90 0 90 -156q0 -106 -52 -304q-58 -216 -116 -280q-50 -56 -104 -56q-66 0 -66 156z" />
<glyph unicode="&#x201c;" horiz-adv-x="1056" d="M140 1568v38q-6 154 80 154q32 0 72 -22q182 -260 182 -608q0 -166 -68 -166q-22 0 -56 19t-50 37q-4 6 -34 66q-118 250 -126 482zM566 1608q0 152 84 152q32 0 74 -22q182 -260 182 -608q0 -166 -68 -166q-42 0 -106 56q-166 304 -166 588z" />
<glyph unicode="&#x201d;" horiz-adv-x="1058" d="M140 1120q0 364 180 618q34 22 68 22q88 0 88 -156q0 -106 -52 -304q-56 -216 -114 -280q-50 -56 -104 -56q-66 0 -66 156zM570 1130q0 354 182 608q36 22 68 22q88 0 88 -146q0 -292 -166 -594q-64 -56 -106 -56q-66 0 -66 166z" />
<glyph unicode="&#x2026;" horiz-adv-x="1890" d="M1398 74q0 74 60 177t126 131q22 10 68 10q88 0 88 -76q0 -62 -57 -161t-107 -129t-106 -30q-72 0 -72 78zM768 74q0 74 60 177t126 131q22 10 68 10q88 0 88 -76q0 -62 -57 -161t-107 -129t-106 -30q-72 0 -72 78zM138 74q0 74 60 177t126 131q22 10 68 10q88 0 88 -76 q0 -62 -57 -161t-107 -129t-106 -30q-72 0 -72 78z" />
<glyph unicode="&#x202f;" horiz-adv-x="460" />
<glyph unicode="&#x2039;" horiz-adv-x="1456" d="M48 660q0 24 8 50q-2 12 -2 22q0 36 60 74q68 42 156 118l148 128q112 94 660 582q26 24 50 40q66 46 114 46q50 0 87 -48t37 -98q0 -46 -30 -82q0 -2 -64 -62q-20 -26 -62 -74q-314 -368 -794 -698q152 -108 878 -584q130 -84 130 -158q0 -50 -47 -94t-99 -44 q-36 0 -68 19t-62 39q-30 14 -88 40q-388 182 -760 476q-132 106 -160 132q-92 94 -92 176z" />
<glyph unicode="&#x203a;" horiz-adv-x="1518" d="M70 -86q0 78 128 160q296 190 880 584q-322 202 -642 530q-88 90 -154 168q-20 26 -62 74q-64 60 -64 62q-30 36 -30 82q0 50 37 98t87 48q68 0 164 -86q424 -382 682 -600q90 -80 282 -228l30 -18q34 -30 34 -58q0 -10 -2 -20q6 -22 6 -46q0 -86 -92 -178 q-26 -26 -162 -134q-376 -298 -760 -476q-30 -12 -88 -40q-104 -58 -140 -58q-46 0 -90 45t-44 91z" />
<glyph unicode="&#x205f;" horiz-adv-x="574" />
<glyph unicode="&#x2122;" horiz-adv-x="1736" d="M110 1476q0 52 22 68q50 36 204 74q146 36 222 36q82 0 108 -14q38 -22 38 -98q0 -42 -30 -42q-20 0 -58 6t-60 6q-62 0 -124 -12v-8q12 -234 48 -686q-28 -84 -64 -84q-42 0 -48 98q0 -28 0 132q0 276 -30 524q-12 -4 -98 -44q-76 -36 -84 -36q-46 0 -46 80zM742 866 q0 150 78 438q94 340 194 340t176 -352q96 320 200 320q156 0 238 -774q-18 -30 -48 -30q-14 0 -26 6q-38 22 -42 94q-20 274 -20 286q-30 224 -98 224q-66 0 -104 -230l-32 -292q-8 -66 -40 -66q-54 0 -92 72q-26 516 -114 516q-128 0 -154 -622q-20 -34 -48 -34 q-30 0 -52 38q-16 32 -16 66z" />
<glyph unicode="&#xe000;" horiz-adv-x="1690" d="M0 1690h1690v-1690h-1690v1690z" />
<glyph unicode="&#xfb01;" horiz-adv-x="1748" d="M1348 1438q0 64 92 64q48 0 88 -29t40 -73q0 -10 -2 -32v-30q0 -42 6 -110q6 -86 6 -108q4 -86 16 -524q6 -320 26 -524q-36 -54 -86 -54q-126 0 -126 266q0 38 2 94t2 72q0 434 -44 818q-20 182 -20 170zM44 1336q0 64 64 64q10 0 22 -2q428 178 726 178q134 0 186 -26 q76 -40 76 -160q0 -100 -56 -100q-6 0 -36 6q-88 20 -184 20q-304 0 -614 -166q22 -346 40 -592q168 20 416 78l412 96q46 -8 74 -68q24 -50 24 -104q0 -98 -54 -98q-18 0 -54 5t-56 5q-326 0 -742 -168q12 -190 28 -332q-36 -56 -88 -56q-124 0 -124 266q0 36 2 95t2 73 q0 288 -18 528q-2 50 -26 234q-20 154 -20 224z" />
<glyph unicode="&#xfb02;" horiz-adv-x="2242" d="M1260 1582q0 70 76 70q58 0 101 -31t43 -85v-34q-2 -22 -2 -32q0 -38 6 -100q4 -78 6 -98q6 -348 30 -1042q204 50 412 50q118 0 156 -4q102 -16 124 -72q10 -28 10 -72q0 -56 -42 -56q-30 0 -90 8t-92 8q-228 0 -454 -88q-30 -14 -60 -30q-42 -18 -58 -18q-44 0 -74 66 q-24 56 -24 106q0 788 -48 1264q-20 202 -20 190zM44 1336q0 64 64 64q10 0 22 -2q428 178 726 178q134 0 186 -26q76 -40 76 -160q0 -100 -56 -100q-6 0 -36 6q-88 20 -184 20q-304 0 -614 -166q22 -346 40 -592q168 20 416 78l412 96q46 -8 74 -68q24 -50 24 -104 q0 -98 -54 -98q-18 0 -54 5t-56 5q-326 0 -742 -168q12 -190 28 -332q-36 -56 -88 -56q-124 0 -124 266q0 36 2 95t2 73q0 288 -18 528q-2 50 -26 234q-20 154 -20 224z" />
<glyph unicode="&#xfb03;" horiz-adv-x="2964" d="M2564 1438q0 64 92 64q48 0 88 -29t40 -73q0 -10 -2 -32v-30q0 -42 6 -110q6 -86 6 -108q4 -86 16 -524q6 -320 26 -524q-36 -54 -86 -54q-126 0 -126 266q0 38 2 94t2 72q0 434 -44 818q-20 182 -20 170zM1260 1336q0 64 64 64q10 0 22 -2q428 178 726 178 q134 0 186 -26q76 -40 76 -160q0 -100 -56 -100q-6 0 -36 6q-88 20 -184 20q-304 0 -614 -166q22 -346 40 -592q168 20 416 78l412 96q46 -8 74 -68q24 -50 24 -104q0 -98 -54 -98q-18 0 -54 5t-56 5q-326 0 -742 -168q12 -190 28 -332q-36 -56 -88 -56q-124 0 -124 266 q0 36 2 95t2 73q0 288 -18 528q-2 50 -26 234q-20 154 -20 224zM44 1336q0 64 64 64q10 0 22 -2q428 178 726 178q134 0 186 -26q76 -40 76 -160q0 -100 -56 -100q-6 0 -36 6q-88 20 -184 20q-304 0 -614 -166q22 -346 40 -592q168 20 416 78l412 96q46 -8 74 -68 q24 -50 24 -104q0 -98 -54 -98q-18 0 -54 5t-56 5q-326 0 -742 -168q12 -190 28 -332q-36 -56 -88 -56q-124 0 -124 266q0 36 2 95t2 73q0 288 -18 528q-2 50 -26 234q-20 154 -20 224z" />
<glyph unicode="&#xfb04;" horiz-adv-x="3458" d="M2476 1582q0 70 76 70q58 0 101 -31t43 -85v-34q-2 -22 -2 -32q0 -38 6 -100q4 -78 6 -98q6 -348 30 -1042q204 50 412 50q118 0 156 -4q102 -16 124 -72q10 -28 10 -72q0 -56 -42 -56q-30 0 -90 8t-92 8q-228 0 -454 -88q-30 -14 -60 -30q-42 -18 -58 -18q-44 0 -74 66 q-24 56 -24 106q0 788 -48 1264q-20 202 -20 190zM1260 1336q0 64 64 64q10 0 22 -2q428 178 726 178q134 0 186 -26q76 -40 76 -160q0 -100 -56 -100q-6 0 -36 6q-88 20 -184 20q-304 0 -614 -166q22 -346 40 -592q168 20 416 78l412 96q46 -8 74 -68q24 -50 24 -104 q0 -98 -54 -98q-18 0 -54 5t-56 5q-326 0 -742 -168q12 -190 28 -332q-36 -56 -88 -56q-124 0 -124 266q0 36 2 95t2 73q0 288 -18 528q-2 50 -26 234q-20 154 -20 224zM44 1336q0 64 64 64q10 0 22 -2q428 178 726 178q134 0 186 -26q76 -40 76 -160q0 -100 -56 -100 q-6 0 -36 6q-88 20 -184 20q-304 0 -614 -166q22 -346 40 -592q168 20 416 78l412 96q46 -8 74 -68q24 -50 24 -104q0 -98 -54 -98q-18 0 -54 5t-56 5q-326 0 -742 -168q12 -190 28 -332q-36 -56 -88 -56q-124 0 -124 266q0 36 2 95t2 73q0 288 -18 528q-2 50 -26 234 q-20 154 -20 224z" />
</font>
</defs>
</svg>
